<svg width="494" height="640" viewBox="0 0 494 640" fill="none" xmlns="http://www.w3.org/2000/svg">
<g filter="url(#filter0_d_165_14)">
<path d="M132.5 217C123 217.5 107 214.5 96.5 208.5C94.4869 207.349 92.4737 205.979 90.5275 204.5C90.5939 208.333 89.3813 217 84 221C77.2734 226 57 233 50 237C43 241 33 246.5 29 253C25 259.5 18.5 271.5 14 293C10.4 310.2 6.83333 349.167 5.5 366.5V380C5.83333 382.833 6.7 389.4 7.5 393C8.3 396.6 16.8333 431.167 21 448C20.1667 455.167 18.6 470.9 19 476.5C19.4061 482.185 18.8227 490.179 23.1433 497C24.1424 498.577 25.4037 500.091 27 501.5C33.8 507.5 37.8333 507.667 39 507C40.1667 508.5 43 511.5 45 511.5C47.5 511.5 49.5 511 50 510.5C50.4 510.1 50.8333 509 51 508.5C52.1667 508.667 54.7 508.9 55.5 508.5C56.5 508 58 505.5 58 503.5C58 501.9 57.3333 494.167 57 490.5C57.8333 491 59.9 491.9 61.5 491.5C63.1 491.1 65.5 488.667 66.5 487.5C67.1667 485 68.3 479.1 67.5 475.5C66.5 471 61 458.5 58 454C55 449.5 53 443.5 52 438C51.8418 437.13 51.6461 435.371 51.4247 433C51.2647 431.286 51.0913 429.251 50.9089 427C49.7488 412.678 48.2275 389.592 47.5 384.5C46.7 378.9 46.5 372.833 46.5 370.5C48.7258 361.875 52.9488 345.075 54.7495 336.5C55.1061 334.801 55.3677 333.426 55.5 332.5C56.5 325.5 61 308.5 61.5 304.5C65.6667 303.333 76.9 298.6 88.5 289C103 277 119 262 126.5 249.5C132.5 239.5 136 232 137 229.5C136.146 228.361 134.805 226.151 133.809 223.5C133.056 221.495 132.5 219.238 132.5 217Z" fill="#EEAD79"/>
<path fill-rule="evenodd" clip-rule="evenodd" d="M306 169C311.6 177 325.667 183 332 185C332.229 185 334.025 185.094 339 185.411C341.28 185.556 344.229 185.749 348 186C360 186.8 378.333 175 386 169V169.028C386.304 168.776 387.55 167.663 391 164.5C397 159 396.5 153.5 399 154.5C401.5 155.5 410 153.5 410.5 153.5C411 153.5 419 149.5 424 142.5C429 135.5 428 130 427.5 125.5C427.1 121.9 425 119.333 424 118.5C423.167 118.167 420.2 117.3 415 116.5C409.8 115.7 404.167 122.167 402 125.5C399.333 118 393.8 101.5 393 95.5C392.2 89.5 395 84.1155 396.5 82.1732C392.503 83.2969 388.072 83.7619 384.5 84C377 84.5 364.5 81.5 360 79.5C359.59 79.3179 358.911 79.0116 358 78.599C352 80.698 345 80.5 341.5 80C338 79.5 335 76.5 333 73.9999C331.4 71.9997 331 69.8332 331 69C330.167 69.1667 327.8 69.9 325 71.5C321.5 73.5 312.5 75.4999 309 75.4999C305.5 75.4999 303.5 75 302 75.4999C300.5 75.9997 299.5 78.9996 298 83.499L298 83.5C296.8 87.1 297.5 93 298 95.5L296.5 99.9999C296.5 100.5 296.2 103.8 295 113C293.5 124.5 294.5 142 295 146.5C295.5 151 299 159 306 169ZM339 156.5C333.4 156.9 324 151.5 324 150.5C324.333 150.167 328.5 151 331 151.5C334.101 152.12 341 153.5 346.5 152.5C350.535 151.766 355.333 148.5 357 146.5C357.667 147 357.2 148.6 356 151C354.5 154 346 156 339 156.5ZM324 130.5C324.4 126.9 330.167 125 333 124.5L334 123C333.833 122.333 332.9 121.1 330.5 121.5C327.5 122 323.5 124.5 322.5 125.5C321.5 126.5 320 129.5 320 133.5C320 136.7 324 139.833 326 141H330.5C331.5 141 331 139.5 329 138.5C327 137.5 323.5 135 324 130.5ZM323 87.5C321 86.3 315.5 87 313 87.5C311.5 88.1667 308.4 89.5 308 89.5C307.6 89.5 307.833 88.5 308 88C309.333 86.8333 312.9 84.2 316.5 83C321 81.5 325.5 84 327 85.5C328.5 87 327.5 87.5 327 88.5C326.5 89.5 325.5 89 323 87.5ZM317.5 102.5C313.5 102.5 312.667 105.833 312 107C311.5 110 311.5 115.4 311.5 117C311.5 119 313.5 121.5 316 121.5C318 121.5 319.833 119.167 320.5 117.5C320.833 114.667 321 109.5 321 107.5C321 106.382 320 102.5 317.5 102.5ZM363 107C359 107 358.167 110.333 357.5 111.5C357 114.5 357 119.9 357 121.5C357 123.5 359 126 361.5 126C363.5 126 365.333 123.667 366 122C366.333 119.167 366.5 114 366.5 112C366.5 110.882 365.5 107 363 107ZM365 92.5C361 91 355.5 93.5 355 93.5C353.8 93.1 353.5 91.6667 353.5 91C354.167 90.3333 356.1 88.8 358.5 88C361.5 87 365 87.5 369.5 89.5C373.1 91.1 375.667 94.1667 376.5 95.5V98H375C373 96.6667 368.2 93.7 365 92.5ZM409 133C411 129.8 415.5 129 417.5 129C419.5 128.766 419 127.569 418.5 127C417.167 126.667 413.7 126.243 410.5 127.214C406.54 128.416 404.05 133.399 403.516 134.469L403.5 134.5C403 135.5 402.5 139 403.5 140C404.3 140.8 405.167 140.333 405.5 140C405.833 139 407 136.2 409 133Z" fill="#EEAD79"/>
<path d="M487.5 333.5C487.5 326.3 482.833 312.833 480.5 307L437 317.771L445.5 343L428.559 365.5L413.5 385.5L409.5 387.5C405.333 386.5 395.5 385.1 389.5 387.5C383.5 389.9 373 395.167 368.5 397.5L365 401.5C364.833 403 364.9 406.1 366.5 406.5C368.1 406.9 373.5 406.667 376 406.5C372 410 363.9 417.2 363.5 418L360.5 424C360.167 425.333 359.9 428 361.5 428H366.5C365.333 429.5 363.1 432.7 363.5 433.5C364 434.5 362.5 436 366.5 437C369.203 437.676 370.194 437.448 370.436 437.16C370.457 437.104 370.478 437.051 370.5 437C370.5 437.052 370.481 437.107 370.436 437.16C369.98 438.384 369.822 440.735 372.5 441.5C375.3 442.3 380.333 442.5 382.5 442.5C382 443 381.3 444.3 382.5 445.5C384 447 390.5 449 395 446.5C399.5 444 419.5 429 424.5 420.5C425.806 418.28 428.141 415.468 430.916 412.5C436.641 406.376 444.234 399.592 448.5 396C457.5 387 477 367 483 359C490.5 349 487.5 342.5 487.5 333.5Z" fill="#EEAD79"/>
<path d="M167 237.5C168.667 237.833 172.6 239.3 175 242.5C178 246.5 185.5 258 188 269C190.5 280 195.5 297 198.5 316C204 320.167 217.2 330.1 226 336.5C237 344.5 246.5 348 254 349C261.5 350 267 346 273.5 340.5C278.7 336.1 284.333 326.333 286.5 322C286.645 319.724 286.807 317.204 286.983 314.5C276.169 310.1 257.822 299.667 250 295L243.5 302L205.5 281.5C203.667 275.833 199.1 262.6 195.5 255C191 245.5 186 242.5 180 237.5C175.2 233.5 166.167 233.5 162.251 234C164.22 235.389 165.904 236.647 167 237.5Z" fill="#EEAD79"/>
<path d="M386 169C378.333 175 360 186.8 348 186C344.229 185.749 341.28 185.556 339 185.411V202L351.5 221C361.809 213.028 381.36 196.478 385.298 188C385.753 187.021 386 186.149 386 185.411V176.5V169.028C385.881 169.127 385.906 169.094 386 169Z" fill="#EEAD79"/>
<path d="M181 398.5C180.641 401.014 178.992 406.106 175.128 411L175.916 422L181.075 494C181.514 494.45 182.251 495.183 183.112 496C184.164 496.998 185.4 498.12 186.5 499C188.5 500.6 191.667 500.333 193 500V503.5L195.5 505C197 504.667 200.7 503.2 203.5 500C207 496 210 487 212 480C213.6 474.4 212.667 467 212 464C209.833 454.167 205.1 432 203.5 422C201.9 412 201.413 395.167 201.369 388C195.317 391.377 186.193 395.961 181 398.5Z" fill="#EEAD79"/>
<path d="M66.5 487.5C65.5 488.667 63.1 491.1 61.5 491.5C63.1 500.3 60.8333 507.833 59.5 510.5C55.8333 512.667 46.6 517.2 39 518C31.4 518.8 24.3758 513.333 21.8137 510.5C19.4842 533.953 15.9693 568.417 14 584.5C11.6 604.1 8.33333 629.333 7 639.5H191.5L181.075 494L175.916 422C170.777 426.833 157 437.2 143 440C143.667 448.333 144.6 470.1 143 490.5C141.4 510.9 137.333 530 135.5 537C136.5 521.333 138.6 487.7 139 478.5C139.4 469.3 139.167 449 139 440C134.5 441.333 123.2 443.9 114 443.5C104.8 443.1 99.1667 443.333 97.5 443.5C96.5 454.5 93.5 480 89.5 494C85.5 508 77.1667 533.5 73.5 544.5C77.5 527 86 489.3 88 478.5C90 467.7 92.1667 449.667 93 442C84.6165 441.333 64.5645 438.6 51.4247 433C51.6461 435.371 51.8418 437.13 52 438C53 443.5 55 449.5 58 454C61 458.5 66.5 471 67.5 475.5C68.3 479.1 67.1667 485 66.5 487.5Z" fill="white"/>
<path fill-rule="evenodd" clip-rule="evenodd" d="M61.5 304.5C61 308.5 56.5 325.5 55.5 332.5C55.3677 333.426 55.1061 334.801 54.7495 336.5C54.3166 338.5 56.4028 399.208 57.5 429.312C60.3844 430.328 63.6412 431.479 66.5 432.5C72.1 434.5 86.5 436 93 436.5C103 437.333 126.4 437.8 140 433C157 427 159.5 424 169.5 416.5C171.754 414.809 173.612 412.92 175.128 411C178.992 406.106 180.641 401.014 181 398.5C186.193 395.961 195.317 391.377 201.369 388C204.057 386.5 206.139 385.238 207 384.5C209.8 382.1 209.833 378.833 209.5 377.5C206.833 363.333 200.9 331.2 198.5 316C195.5 297 190.5 280 188 269C185.5 258 178 246.5 175 242.5C172.6 239.3 168.667 237.833 167 237.5C165.904 236.647 164.22 235.389 162.251 234C158.832 231.587 154.554 228.777 151 227C145.4 224.2 137.206 223.5 133.809 223.5C134.805 226.151 136.146 228.361 137 229.5C136 232 132.5 239.5 126.5 249.5C119 262 103 277 88.5 289C76.9 298.6 65.6667 303.333 61.5 304.5ZM132 294.5C147.2 278.1 153 252.333 154 241.5C150 261 134 281.5 116.5 303.5C102.5 321.1 75.6667 338.167 64 344.5C64.3333 344.5 68.2 343.4 81 339C97 333.5 113 315 132 294.5ZM159.5 291C157.167 315 137.8 366.8 79 382C128.6 361.6 153.333 312.833 159.5 291ZM74.5 409.5C94.4987 412 141.097 408.1 167.5 372.5C147.5 414.5 97.1667 414.667 74.5 409.5Z" fill="white"/>
<path d="M385.5 640H443C442.5 589.418 441.851 500.875 442.23 459.5C424.461 463.5 389.5 462.5 374.5 461.5C359.5 460.5 358 456 343.5 454C331.9 452.4 302.754 449.667 289.632 448.5L291.5 640H352.5L360.5 474.5L385.5 640Z" fill="#16610E"/>
<path d="M480.5 280.5C477 272 459.5 233 455.5 226.5C452.039 220.876 444.46 216.749 437.622 212.5C432.748 217.833 422.5 230.6 420.5 239C420.419 239.339 420.338 239.679 420.257 240.021C417.811 250.273 415.048 261.855 416.5 272.5C417.7 281.3 424.667 307.833 428 320L437 317.771L480.5 307C480.5 306.333 481.3 304.8 484.5 304C487.7 303.2 487.833 300.333 487.5 299C486.333 295.667 483.3 287.3 480.5 280.5Z" fill="#16610E"/>
<path d="M247 287.5C245.8 290.3 248.5 293.667 250 295C257.822 299.667 276.169 310.1 286.983 314.5C288.62 289.282 291.416 248.032 292.5 239C293.7 229 297.667 218.467 299.5 214.45C298.08 215.158 297.027 215.699 296.5 216C293 218 281 232.5 269 249.5C257 266.5 248.5 284 247 287.5Z" fill="#16610E"/>
<path d="M369.5 223.5C363.9 221.5 358.5 219.667 356.5 219L351.5 221C351.372 221.765 351.236 222.601 351.091 223.5C349.159 235.522 345.872 258.729 345.5 272.5C345.414 275.696 345.279 279.828 345.114 284.5H345.5C347.5 282.5 353.5 275.7 361.5 264.5C369.5 253.3 377.5 236.71 380.5 229.815C376.754 227.19 372.597 224.606 369.5 223.5Z" fill="#16610E"/>
<path d="M345.114 284.5C345.279 279.828 345.414 275.696 345.5 272.5C345.872 258.729 349.159 235.522 351.091 223.5C345.87 224.667 334.136 229.2 328.964 238C329.701 244.521 330.852 252.115 332.5 258C335.3 268 342.076 279.833 345.114 284.5Z" fill="#16610E"/>
<path d="M332 185L325.5 202C323.833 207.5 320.5 219 320.5 221V233C322.417 231.177 325.037 228.96 328 226.846C335.6 221.425 345.456 216.683 351.5 221L339 202V185.411C334.025 185.094 332.229 185 332 185Z" fill="#16610E"/>
<path d="M391 179C389.4 177 387 176.5 386 176.5V185.411C386 186.149 385.753 187.021 385.298 188C381.36 196.478 361.809 213.028 351.5 221L356.5 219C358.5 219.667 363.9 221.5 369.5 223.5C372.597 224.606 376.754 227.19 380.5 229.815C383.528 231.937 386.287 234.085 388 235.5L402 197.5V195C399 190.5 392.6 181 391 179Z" fill="#16610E"/>
<path d="M332.5 439C324.9 440.6 300.667 437 289.5 435L289.632 448.5C302.754 449.667 331.9 452.4 343.5 454C358 456 359.5 460.5 374.5 461.5C389.5 462.5 424.461 463.5 442.23 459.5C442.357 445.662 442.599 437.1 443 437C439.667 437.333 433 438.7 433 441.5C433 444.3 429.667 446 428 446.5C404.167 447.5 355.2 449.6 350 450C344.8 450.4 343.5 440.167 343.5 435C343 435.667 340.1 437.4 332.5 439Z" fill="#0B3807"/>
<path d="M351.5 221C345.456 216.683 335.6 221.425 328 226.846C328.137 229.405 328.449 233.44 328.964 238C334.136 229.2 345.87 224.667 351.091 223.5C351.236 222.601 351.372 221.765 351.5 221Z" fill="#0B3807"/>
<path d="M325.5 202C318.598 205.248 305.632 211.396 299.5 214.45C297.667 218.467 293.7 229 292.5 239C291.416 248.032 288.62 289.282 286.983 314.5C286.807 317.204 286.645 319.724 286.5 322C286.251 332.557 285.937 346.322 285.629 360.5L336.878 364.5L335 344.5C334.833 342.5 335.6 338.4 340 338C340.476 337.957 341.507 337.882 343 337.781C343.523 325.554 344.517 301.466 345.114 284.5C342.076 279.833 335.3 268 332.5 258C330.852 252.115 329.701 244.521 328.964 238C328.449 233.44 328.137 229.405 328 226.846C325.037 228.96 322.417 231.177 320.5 233V221C320.5 219 323.833 207.5 325.5 202Z" fill="#F97A00"/>
<path d="M434.5 210.5C428.5 206.5 410.333 200.167 402 197.5L388 235.5C386.287 234.085 383.528 231.937 380.5 229.815C377.5 236.71 369.5 253.3 361.5 264.5C353.5 275.7 347.5 282.5 345.5 284.5H345.114C344.517 301.466 343.523 325.554 343 337.781C347.129 337.501 354.79 337.021 364 336.456C363.667 334.137 363.6 329.4 366 329C368.4 328.6 384 327.167 391.5 326.5C392.667 326.5 395 326.9 395 328.5C395 330.1 395.333 333.2 395.5 334.549C405.163 333.97 414.376 333.422 421.5 333C422.143 332.786 423.079 332.718 423.971 333.12C424.017 333.141 424.063 333.163 424.108 333.186L428 320C424.667 307.833 417.7 281.3 416.5 272.5C415.048 261.855 417.811 250.273 420.257 240.021C420.338 239.679 420.419 239.339 420.5 239C422.5 230.6 432.748 217.833 437.622 212.5C436.557 211.838 435.511 211.174 434.5 210.5Z" fill="#F97A00"/>
<path d="M284.5 431C284.9 433.4 288 434.667 289.5 435C300.667 437 324.9 440.6 332.5 439C340.1 437.4 343 435.667 343.5 435L338.663 383.5L285.226 379.5C284.68 406.079 284.273 429.637 284.5 431Z" fill="#F97A00"/>
<path d="M320.5 14.9999C312.1 20.5999 304.333 34.3332 301.5 40.4999C313 40.1666 340.8 41.7 360 50.5C374.307 57.0575 391.582 65.2143 406.395 75.4999C416.43 82.468 425.336 90.4131 431.425 99.5C431.655 98.5556 431.848 97.709 432 97C432.333 95.1667 433.1 87.3 433.5 70.5C433.9 53.7 426.667 39.5 423 34.5C419.5 30 409.8 19.4 399 13C385.5 5 375.5 2.99985 361 1.99985C346.5 0.999854 331 7.99985 320.5 14.9999Z" fill="#16610E"/>
<path d="M286 42.9999C275.5 44.9999 264.5 51.9999 262.5 53.9999C267.5 50.8332 281.6 46.1 298 52.5C299.426 53.0564 300.931 53.6563 302.5 54.2916C321.436 61.9603 349.596 74.7946 358 78.599C358.911 79.0116 359.59 79.3179 360 79.5C364.5 81.5 377 84.5 384.5 84C388.072 83.7619 392.503 83.2969 396.5 82.1732C400.897 80.9373 404.769 78.9044 406.395 75.4999C391.582 65.2143 374.307 57.0575 360 50.5C340.8 41.7 313 40.1666 301.5 40.4999C299.833 40.6665 294.4 41.3999 286 42.9999Z" fill="#1F7F15"/>
<path d="M274.5 73.9999C278.9 75.9999 288 75.8332 292 75.4999C293.2 66.2999 299.5 57.5277 302.5 54.2916C300.931 53.6563 299.426 53.0564 298 52.5C281.6 46.1 267.5 50.8332 262.5 53.9999C260.5 55.9999 260.5 59.9999 261.5 63.4999C262.5 66.9999 269 71.4999 274.5 73.9999Z" fill="#0B3807"/>
<path d="M336.878 364.5L285.629 360.5C285.491 366.834 285.355 373.251 285.226 379.5L338.663 383.5L336.878 364.5Z" fill="#FED16A"/>
<path d="M437 317.771L428 320L424.108 333.186L424.149 333.207C425.27 333.798 426.283 335.176 426.5 338C426.9 343.2 428.039 358.5 428.559 365.5L445.5 343L437 317.771Z" fill="#D26700"/>
<path d="M450 432.5L448.5 396C444.234 399.592 436.641 406.376 430.916 412.5L433 441.5C433 438.7 439.667 437.333 443 437C444.6 436.6 448.333 433.833 450 432.5Z" fill="#D26700"/>
<path d="M102.5 140.5C103 138.667 104.7 134.9 107.5 134.5C110.3 134.1 112 138.333 112.5 140.5V149.5C112 151 110.4 154 108 154C105 154 102.5 149.5 102.5 149V140.5Z" fill="black"/>
<path d="M135.5 154C134.833 152.833 134.1 150.5 136.5 150.5C139.5 150.5 146 153 147 157C148 161 148.5 163 146 167C143.5 171 138.5 171 137.5 171C136.5 171 136 169.5 138 168.5C140 167.5 144 165.5 144 162.5C144 159.5 143.5 157 140.5 156C138.1 155.2 136.167 154.333 135.5 154Z" fill="black"/>
<path d="M108.5 177C108.667 176.167 109.4 174.9 111 176.5C111.328 176.828 111.643 177.197 111.976 177.587C113.668 179.569 115.814 182.082 122.5 182.5C130.5 183 138.5 182 139.5 181.5C140.3 181.1 142.167 180 143 179.5C143.833 179.167 145.5 178.9 145.5 180.5C145.5 182.5 144 184 138.5 185.5C133 187 122.5 188 117 186C111.642 184.052 109.5 180 108.5 177Z" fill="black"/>
<path d="M51.5 157C53.5 156.667 58 156.8 60 160C62 163.2 62.8333 165.667 63 166.5C63.8333 166.667 65.6 166.9 66 166.5C66.5 166 65.5 161.5 64.5 159.5C63.5 157.5 59.5 154 57.5 154H52L50.5 155.5L51.5 157Z" fill="black"/>
<path d="M93 123.5C95.6667 121.333 102.1 117.1 106.5 117.5C110.9 117.9 113.333 117.333 114 117V115C113.333 114.167 111.2 112.5 108 112.5C104 112.5 99 114 96 116C93.6 117.6 92 119.333 91.5 120C91.3333 121.167 91.1 123.5 91.5 123.5H93Z" fill="black"/>
<path d="M147 115.5C149.333 114.833 154.422 114.711 158 116.5L163 119C163.321 119.161 163.712 119.439 164.097 119.712C164.657 120.111 165.203 120.5 165.5 120.5C166 120.5 166.7 119.2 165.5 118C165.288 117.788 165.027 117.516 164.725 117.203C162.89 115.299 159.576 111.859 157 111C154 110 150.5 110 148 111C146 111.8 146.5 114.333 147 115.5Z" fill="black"/>
<path d="M42.5 88.5C31.7 106.5 39.6667 134.333 45 145.5C47.1667 144 52.4 141.2 56 142C59.6 142.8 64.8333 148 67 150.5C69.5 145.667 74.8 134.3 76 127.5C76.4678 124.849 76.9002 121.453 77.2734 118L78.5 104C78.2966 107.051 77.8575 112.596 77.2734 118C79.6823 115.333 84.9 109.3 86.5 106.5C88.1 103.7 90.1667 97.6665 91 94.9999C93.8333 95.9999 99.9 97.9999 101.5 97.9999C103.5 97.9999 111 97.9999 114 96.4999C117 94.9999 124 90.9999 127 87.9999C129.4 85.5999 132 82.6665 133 81.4999L129.5 96.4999C129.333 97.4999 129.4 99.5999 131 99.9999C131.576 100.144 132.234 100.412 132.964 100.709C134.768 101.444 137.007 102.356 139.5 102C143 101.5 151.5 98.4999 154 96.9999C156 95.7999 161.167 92.1665 163.5 90.4999C166.167 95.1665 171.9 107.3 173.5 118.5C174.486 125.404 174.953 129.876 175.205 132.291C175.362 133.794 175.436 134.5 175.5 134.5C177.333 134 181.9 128.6 183.5 119C185.5 107 185 96.4999 181.5 84.9999C178.7 75.7999 169.333 70.1666 165 68.5C165 67.1666 162.1 62.8999 150.5 56.4999C136 48.4999 119 46.9999 96.5 49.9999C78.5 52.3999 66 63.3333 62 68.5C60 67.6666 53.3 70.5 42.5 88.5Z" fill="black"/>
<path d="M291 86.9999C291 90.9999 294.667 97.3332 296.5 99.9999L298 95.5C297.5 93 296.8 87.1 298 83.5L298 83.499C299.5 78.9996 300.5 75.9997 302 75.4999C303.5 75 305.5 75.4999 309 75.4999C312.5 75.4999 321.5 73.5 325 71.5C327.8 69.9 330.167 69.1667 331 69C331 69.8332 331.4 71.9997 333 73.9999C335 76.5 338 79.5 341.5 80C345 80.5 352 80.698 358 78.599C349.596 74.7946 321.436 61.9603 302.5 54.2916C299.5 57.5277 293.2 66.2999 292 75.4999C291.667 77.6665 291 82.9999 291 86.9999Z" fill="black"/>
<path d="M312 107C312.667 105.833 313.5 102.5 317.5 102.5C320 102.5 321 106.382 321 107.5C321 109.5 320.833 114.667 320.5 117.5C319.833 119.167 318 121.5 316 121.5C313.5 121.5 311.5 119 311.5 117C311.5 115.4 311.5 110 312 107Z" fill="black"/>
<path d="M313 87.5C315.5 87 321 86.3 323 87.5C325.5 89 326.5 89.5 327 88.5C327.5 87.5 328.5 87 327 85.5C325.5 84 321 81.5 316.5 83C312.9 84.2 309.333 86.8333 308 88C307.833 88.5 307.6 89.5 308 89.5C308.4 89.5 311.5 88.1667 313 87.5Z" fill="black"/>
<path d="M355 93.5C355.5 93.5 361 91 365 92.5C368.2 93.7 373 96.6667 375 98H376.5V95.5C375.667 94.1667 373.1 91.1 369.5 89.5C365 87.5 361.5 87 358.5 88C356.1 88.8 354.167 90.3333 353.5 91C353.5 91.6667 353.8 93.1 355 93.5Z" fill="black"/>
<path d="M333 124.5C330.167 125 324.4 126.9 324 130.5C323.5 135 327 137.5 329 138.5C331 139.5 331.5 141 330.5 141H326C324 139.833 320 136.7 320 133.5C320 129.5 321.5 126.5 322.5 125.5C323.5 124.5 327.5 122 330.5 121.5C332.9 121.1 333.833 122.333 334 123L333 124.5Z" fill="black"/>
<path d="M324 150.5C324 151.5 333.4 156.9 339 156.5C346 156 354.5 154 356 151C357.2 148.6 357.667 147 357 146.5C355.333 148.5 350.535 151.766 346.5 152.5C341 153.5 334.101 152.12 331 151.5C328.5 151 324.333 150.167 324 150.5Z" fill="black"/>
<path d="M357.5 111.5C358.167 110.333 359 107 363 107C365.5 107 366.5 110.882 366.5 112C366.5 114 366.333 119.167 366 122C365.333 123.667 363.5 126 361.5 126C359 126 357 123.5 357 121.5C357 119.9 357 114.5 357.5 111.5Z" fill="black"/>
<path d="M424 118.5L425 117.5C427.714 113.09 430.14 104.772 431.425 99.5C425.336 90.4131 416.43 82.468 406.395 75.4999C404.769 78.9044 400.897 80.9373 396.5 82.1732C395 84.1155 392.2 89.5 393 95.5C393.8 101.5 399.333 118 402 125.5C404.167 122.167 409.8 115.7 415 116.5C420.2 117.3 423.167 118.167 424 118.5Z" fill="black"/>
<path d="M417.5 129C415.5 129 411 129.8 409 133C407 136.2 405.833 139 405.5 140C405.167 140.333 404.3 140.8 403.5 140C402.5 139 403 135.5 403.5 134.5L403.516 134.469C404.05 133.399 406.54 128.416 410.5 127.214C413.7 126.243 417.167 126.667 418.5 127C419 127.569 419.5 128.766 417.5 129Z" fill="black"/>
<path fill-rule="evenodd" clip-rule="evenodd" d="M409.5 387.5L413.5 385.5L428.559 365.5C428.039 358.5 426.9 343.2 426.5 338C426.283 335.176 425.27 333.798 424.149 333.207L424.108 333.186C424.063 333.163 424.017 333.141 423.971 333.12C423.079 332.718 422.143 332.786 421.5 333C414.376 333.422 405.163 333.97 395.5 334.549C384.809 335.19 373.568 335.869 364 336.456C354.79 337.021 347.129 337.501 343 337.781C341.507 337.882 340.476 337.957 340 338C335.6 338.4 334.833 342.5 335 344.5L336.878 364.5L338.663 383.5L343.5 435C343.5 440.167 344.8 450.4 350 450C355.2 449.6 404.167 447.5 428 446.5C429.667 446 433 444.3 433 441.5L430.916 412.5C428.141 415.468 425.806 418.28 424.5 420.5C419.5 429 399.5 444 395 446.5C390.5 449 384 447 382.5 445.5C381.3 444.3 382 443 382.5 442.5C380.333 442.5 375.3 442.3 372.5 441.5C369.822 440.735 369.98 438.384 370.436 437.16C370.194 437.448 369.203 437.676 366.5 437C362.5 436 364 434.5 363.5 433.5C363.1 432.7 365.333 429.5 366.5 428H361.5C359.9 428 360.167 425.333 360.5 424L363.5 418C363.9 417.2 372 410 376 406.5C373.5 406.667 368.1 406.9 366.5 406.5C364.9 406.1 364.833 403 365 401.5L368.5 397.5C373 395.167 383.5 389.9 389.5 387.5C395.5 385.1 405.333 386.5 409.5 387.5Z" fill="#B46C32"/>
<path d="M366 329C363.6 329.4 363.667 334.137 364 336.456C373.568 335.869 384.809 335.19 395.5 334.549C395.333 333.2 395 330.1 395 328.5C395 326.9 392.667 326.5 391.5 326.5C384 327.167 368.4 328.6 366 329Z" fill="#9C9C9C"/>
<path fill-rule="evenodd" clip-rule="evenodd" d="M175.5 134.5C176.333 146 177.6 169.3 174 178.5C169.5 190 165.5 198.5 159 204.5C152.5 210.5 142 216.5 132.5 217C123 217.5 107 214.5 96.5 208.5C94.4869 207.349 92.4737 205.979 90.5275 204.5C82.3229 198.266 75.3083 190.116 74.5 188.5C73.7 186.9 72.8333 184.5 72.5 183.5C69.1667 184.333 61.7 185.5 58.5 183.5C58.2227 183.327 57.9309 183.146 57.6272 182.958C53.5509 180.436 47.3267 176.584 45 171C44.8471 170.633 44.6848 170.251 44.5166 169.855C41.935 163.778 37.9588 154.419 45 145.5C47.1667 144 52.4 141.2 56 142C59.6 142.8 64.8333 148 67 150.5C69.5 145.667 74.8 134.3 76 127.5C76.4678 124.849 76.9002 121.453 77.2734 118C79.6823 115.333 84.9 109.3 86.5 106.5C88.1 103.7 90.1667 97.6665 91 94.9999C93.8333 95.9999 99.9 97.9999 101.5 97.9999C103.5 97.9999 111 97.9999 114 96.4999C117 94.9999 124 90.9999 127 87.9999C129.4 85.5999 132 82.6665 133 81.4999L129.5 96.4999C129.333 97.4999 129.4 99.5999 131 99.9999C131.576 100.144 132.234 100.412 132.964 100.709C134.768 101.444 137.007 102.356 139.5 102C143 101.5 151.5 98.4999 154 96.9999C156 95.7999 161.167 92.1665 163.5 90.4999C166.167 95.1665 171.9 107.3 173.5 118.5C174.486 125.404 174.953 129.876 175.205 132.291C175.362 133.794 175.436 134.5 175.5 134.5ZM135.5 154C134.833 152.833 134.1 150.5 136.5 150.5C139.5 150.5 146 153 147 157C148 161 148.5 163 146 167C143.5 171 138.5 171 137.5 171C136.5 171 136 169.5 138 168.5C140 167.5 144 165.5 144 162.5C144 159.5 143.5 157 140.5 156C138.1 155.2 136.167 154.333 135.5 154ZM102.5 140.5C103 138.667 104.7 134.9 107.5 134.5C110.3 134.1 112 138.333 112.5 140.5V149.5C112 151 110.4 154 108 154C105 154 102.5 149.5 102.5 149V140.5ZM108.5 177C108.667 176.167 109.4 174.9 111 176.5C111.328 176.828 111.643 177.197 111.976 177.587C113.668 179.569 115.814 182.082 122.5 182.5C130.5 183 138.5 182 139.5 181.5C140.3 181.1 142.167 180 143 179.5C143.833 179.167 145.5 178.9 145.5 180.5C145.5 182.5 144 184 138.5 185.5C133 187 122.5 188 117 186C111.642 184.052 109.5 180 108.5 177ZM93 123.5C95.6667 121.333 102.1 117.1 106.5 117.5C110.9 117.9 113.333 117.333 114 117V115C113.333 114.167 111.2 112.5 108 112.5C104 112.5 99 114 96 116C93.6 117.6 92 119.333 91.5 120C91.3333 121.167 91.1 123.5 91.5 123.5H93ZM147 115.5C149.333 114.833 154.422 114.711 158 116.5L163 119C163.321 119.161 163.712 119.439 164.097 119.712C164.657 120.111 165.203 120.5 165.5 120.5C166 120.5 166.7 119.2 165.5 118C165.288 117.788 165.027 117.516 164.725 117.203C162.89 115.299 159.576 111.859 157 111C154 110 150.5 110 148 111C146 111.8 146.5 114.333 147 115.5ZM51.5 157C53.5 156.667 58 156.8 60 160C62 163.2 62.8333 165.667 63 166.5C63.8333 166.667 65.6 166.9 66 166.5C66.5 166 65.5 161.5 64.5 159.5C63.5 157.5 59.5 154 57.5 154H52L50.5 155.5L51.5 157ZM151.5 132.5C149.1 132.5 147.5 136.333 147 138V146C147 147.5 149.5 151.5 152 151.5C154 151.5 156 148.167 156.5 146.5C156.667 144.167 156.9 139.1 156.5 137.5C156 135.5 154.5 132.5 151.5 132.5Z" fill="#EEAD79"/>
<path d="M147 138C147.5 136.333 149.1 132.5 151.5 132.5C154.5 132.5 156 135.5 156.5 137.5C156.9 139.1 156.667 144.167 156.5 146.5C156 148.167 154 151.5 152 151.5C149.5 151.5 147 147.5 147 146V138Z" fill="black"/>
<path d="M46.5 370.5C46.5 372.833 46.7 378.9 47.5 384.5C48.2275 389.592 49.7488 412.678 50.9089 427C52.3107 427.489 54.7342 428.338 57.5 429.312C56.4028 399.208 54.3166 338.5 54.7495 336.5C52.9488 345.075 48.7258 361.875 46.5 370.5Z" fill="#CDCBC6"/>
<path d="M159.5 291C157.167 315 137.8 366.8 79 382C128.6 361.6 153.333 312.833 159.5 291Z" fill="#CDCBC6"/>
<path d="M154 241.5C153 252.333 147.2 278.1 132 294.5C113 315 97 333.5 81 339C68.2 343.4 64.3333 344.5 64 344.5C75.6667 338.167 102.5 321.1 116.5 303.5C134 281.5 150 261 154 241.5Z" fill="#CDCBC6"/>
<path d="M74.5 409.5C94.4987 412 141.097 408.1 167.5 372.5C147.5 414.5 97.1667 414.667 74.5 409.5Z" fill="#CDCBC6"/>
<path d="M169.5 416.5C159.5 424 157 427 140 433C126.4 437.8 103 437.333 93 436.5C86.5 436 72.1 434.5 66.5 432.5C63.6412 431.479 60.3844 430.328 57.5 429.312C54.7342 428.338 52.3107 427.489 50.9089 427C51.0913 429.251 51.2647 431.286 51.4247 433C64.5645 438.6 84.6165 441.333 93 442C92.1667 449.667 90 467.7 88 478.5C86 489.3 77.5 527 73.5 544.5C77.1667 533.5 85.5 508 89.5 494C93.5 480 96.5 454.5 97.5 443.5C99.1667 443.333 104.8 443.1 114 443.5C123.2 443.9 134.5 441.333 139 440C139.167 449 139.4 469.3 139 478.5C138.6 487.7 136.5 521.333 135.5 537C137.333 530 141.4 510.9 143 490.5C144.6 470.1 143.667 448.333 143 440C157 437.2 170.777 426.833 175.916 422L175.128 411C173.612 412.92 171.754 414.809 169.5 416.5Z" fill="#CDCBC6"/>
<path d="M39 507C37.8333 507.667 33.8 507.5 27 501.5C25.4037 500.091 24.1424 498.577 23.1433 497C22.7758 500.768 22.3231 505.371 21.8137 510.5C24.3758 513.333 31.4 518.8 39 518C46.6 517.2 55.8333 512.667 59.5 510.5C60.8333 507.833 63.1 500.3 61.5 491.5C59.9 491.9 57.8333 491 57 490.5C57.3333 494.167 58 501.9 58 503.5C58 505.5 56.5 508 55.5 508.5C54.7 508.9 52.1667 508.667 51 508.5C50.8333 509 50.4 510.1 50 510.5C49.5 511 47.5 511.5 45 511.5C43 511.5 40.1667 508.5 39 507Z" fill="#CDCBC6"/>
<path d="M45 145.5C39.6667 134.333 31.7 106.5 42.5 88.5C53.3 70.5 60 67.6666 62 68.5C66 63.3333 78.5 52.3999 96.5 49.9999C119 46.9999 136 48.4999 150.5 56.4999C162.1 62.8999 165 67.1666 165 68.5C169.333 70.1666 178.7 75.7999 181.5 84.9999C185 96.4999 185.5 107 183.5 119C181.9 128.6 177.333 134 175.5 134.5M45 145.5C47.1667 144 52.4 141.2 56 142C59.6 142.8 64.8333 148 67 150.5C69.5 145.667 74.8 134.3 76 127.5C76.4678 124.849 76.9002 121.453 77.2734 118M45 145.5C37.9588 154.419 41.935 163.778 44.5166 169.855C44.6848 170.251 44.8471 170.633 45 171C47.3267 176.584 53.5509 180.436 57.6272 182.958C57.9309 183.146 58.2227 183.327 58.5 183.5C61.7 185.5 69.1667 184.333 72.5 183.5C72.8333 184.5 73.7 186.9 74.5 188.5C75.3083 190.116 82.3229 198.266 90.5275 204.5M175.5 134.5C176.333 146 177.6 169.3 174 178.5C169.5 190 165.5 198.5 159 204.5C152.5 210.5 142 216.5 132.5 217M175.5 134.5C175.436 134.5 175.362 133.794 175.205 132.291C174.953 129.876 174.486 125.404 173.5 118.5C171.9 107.3 166.167 95.1665 163.5 90.4999C161.167 92.1665 156 95.7999 154 96.9999C151.5 98.4999 143 101.5 139.5 102C137.007 102.356 134.768 101.444 132.964 100.709C132.234 100.412 131.576 100.144 131 99.9999C129.4 99.5999 129.333 97.4999 129.5 96.4999L133 81.4999C132 82.6665 129.4 85.5999 127 87.9999C124 90.9999 117 94.9999 114 96.4999C111 97.9999 103.5 97.9999 101.5 97.9999C99.9 97.9999 93.8333 95.9999 91 94.9999C90.1667 97.6665 88.1 103.7 86.5 106.5C84.9 109.3 79.6823 115.333 77.2734 118M132.5 217C123 217.5 107 214.5 96.5 208.5C94.4869 207.349 92.4737 205.979 90.5275 204.5M132.5 217C132.5 219.238 133.056 221.495 133.809 223.5M77.2734 118C77.8575 112.596 78.2966 107.051 78.5 104L77.2734 118ZM90.5275 204.5C90.5939 208.333 89.3813 217 84 221C77.2734 226 57 233 50 237C43 241 33 246.5 29 253C25 259.5 18.5 271.5 14 293C10.4 310.2 6.83333 349.167 5.5 366.5V380C5.83333 382.833 6.7 389.4 7.5 393C8.3 396.6 16.8333 431.167 21 448C20.1667 455.167 18.6 470.9 19 476.5C19.4061 482.185 18.8227 490.179 23.1433 497M39 507C37.8333 507.667 33.8 507.5 27 501.5C25.4037 500.091 24.1424 498.577 23.1433 497M39 507C40.1667 508.5 43 511.5 45 511.5C47.5 511.5 49.5 511 50 510.5C50.4 510.1 50.8333 509 51 508.5M39 507C33 501 30.8333 487.5 30.5 481.5M51 508.5C52.1667 508.667 54.7 508.9 55.5 508.5C56.5 508 58 505.5 58 503.5C58 501.9 57.3333 494.167 57 490.5M51 508.5C46.2 503.3 43.3333 489.333 42.5 483M57 490.5C57.8333 491 59.9 491.9 61.5 491.5M57 490.5C55 486.1 55.1667 475 55.5 470M61.5 491.5C63.1 491.1 65.5 488.667 66.5 487.5C67.1667 485 68.3 479.1 67.5 475.5C66.5 471 61 458.5 58 454C55 449.5 53 443.5 52 438C51.8418 437.13 51.6461 435.371 51.4247 433M61.5 491.5C63.1 500.3 60.8333 507.833 59.5 510.5C55.8333 512.667 46.6 517.2 39 518C31.4 518.8 24.3758 513.333 21.8137 510.5M61.5 304.5C61 308.5 56.5 325.5 55.5 332.5C55.3677 333.426 55.1061 334.801 54.7495 336.5M61.5 304.5C61.9 301.3 62.3333 294.167 62.5 291M61.5 304.5C65.6667 303.333 76.9 298.6 88.5 289C103 277 119 262 126.5 249.5C132.5 239.5 136 232 137 229.5C136.146 228.361 134.805 226.151 133.809 223.5M133.809 223.5C137.206 223.5 145.4 224.2 151 227C154.554 228.777 158.832 231.587 162.251 234M198.5 316C195.5 297 190.5 280 188 269C185.5 258 178 246.5 175 242.5C172.6 239.3 168.667 237.833 167 237.5C165.904 236.647 164.22 235.389 162.251 234M198.5 316C200.9 331.2 206.833 363.333 209.5 377.5C209.833 378.833 209.8 382.1 207 384.5C206.139 385.238 204.057 386.5 201.369 388M198.5 316C204 320.167 217.2 330.1 226 336.5C237 344.5 246.5 348 254 349C261.5 350 267 346 273.5 340.5C278.7 336.1 284.333 326.333 286.5 322M181 398.5C178.2 366.9 179.833 319.333 181 299.5M181 398.5C180.641 401.014 178.992 406.106 175.128 411M181 398.5C186.193 395.961 195.317 391.377 201.369 388M50.9089 427C49.7488 412.678 48.2275 389.592 47.5 384.5C46.7 378.9 46.5 372.833 46.5 370.5C48.7258 361.875 52.9488 345.075 54.7495 336.5M50.9089 427C52.3107 427.489 54.7342 428.338 57.5 429.312M50.9089 427C51.0913 429.251 51.2647 431.286 51.4247 433M23.1433 497C22.7758 500.768 22.3231 505.371 21.8137 510.5M175.128 411C173.612 412.92 171.754 414.809 169.5 416.5C159.5 424 157 427 140 433C126.4 437.8 103 437.333 93 436.5C86.5 436 72.1 434.5 66.5 432.5C63.6412 431.479 60.3844 430.328 57.5 429.312M175.128 411L175.916 422M201.369 388C201.413 395.167 201.9 412 203.5 422C205.1 432 209.833 454.167 212 464C212.667 467 213.6 474.4 212 480C210 487 207 496 203.5 500C200.7 503.2 197 504.667 195.5 505L193 503.5V500M193 500C191.667 500.333 188.5 500.6 186.5 499C185.4 498.12 184.164 496.998 183.112 496M193 500C203.635 488 199 466 199 465M181.075 494L191.5 639.5H7C8.33333 629.333 11.6 604.1 14 584.5C15.9693 568.417 19.4842 533.953 21.8137 510.5M181.075 494C181.514 494.45 182.251 495.183 183.112 496M181.075 494L175.916 422M187.5 469.5C189.908 473 192.401 483.2 183.112 496M102.5 140.5C103 138.667 104.7 134.9 107.5 134.5C110.3 134.1 112 138.333 112.5 140.5V149.5C112 151 110.4 154 108 154C105 154 102.5 149.5 102.5 149M102.5 140.5C102.5 143.167 102.5 148.6 102.5 149M102.5 140.5V149M93 123.5C95.6667 121.333 102.1 117.1 106.5 117.5C110.9 117.9 113.333 117.333 114 117V115C113.333 114.167 111.2 112.5 108 112.5C104 112.5 99 114 96 116C93.6 117.6 92 119.333 91.5 120C91.3333 121.167 91.1 123.5 91.5 123.5M93 123.5C92.6667 123.5 91.9 123.5 91.5 123.5M93 123.5H91.5M158 116.5C154.422 114.711 149.333 114.833 147 115.5C146.5 114.333 146 111.8 148 111C150.5 110 154 110 157 111C159.576 111.859 162.89 115.299 164.725 117.203C165.027 117.516 165.288 117.788 165.5 118C166.7 119.2 166 120.5 165.5 120.5C165.203 120.5 164.657 120.111 164.097 119.712C163.712 119.439 163.321 119.161 163 119M158 116.5C161 118 162.5 118.75 163 119M158 116.5L163 119M147 138C147.5 136.333 149.1 132.5 151.5 132.5C154.5 132.5 156 135.5 156.5 137.5C156.9 139.1 156.667 144.167 156.5 146.5C156 148.167 154 151.5 152 151.5C149.5 151.5 147 147.5 147 146M147 138C147 140.333 147 144.8 147 146M147 138V146M57.5 154C59.5 154 63.5 157.5 64.5 159.5C65.5 161.5 66.5 166 66 166.5C65.6 166.9 63.8333 166.667 63 166.5C62.8333 165.667 62 163.2 60 160C58 156.8 53.5 156.667 51.5 157L50.5 155.5L52 154M57.5 154C55.9 154 53.1667 154 52 154M57.5 154H52M54.7495 336.5C54.3166 338.5 56.4028 399.208 57.5 429.312M175.916 422C170.777 426.833 157 437.2 143 440C143.667 448.333 144.6 470.1 143 490.5C141.4 510.9 137.333 530 135.5 537C136.5 521.333 138.6 487.7 139 478.5C139.4 469.3 139.167 449 139 440C134.5 441.333 123.2 443.9 114 443.5C104.8 443.1 99.1667 443.333 97.5 443.5C96.5 454.5 93.5 480 89.5 494C85.5 508 77.1667 533.5 73.5 544.5C77.5 527 86 489.3 88 478.5C90 467.7 92.1667 449.667 93 442C84.6165 441.333 64.5645 438.6 51.4247 433M162.251 234C166.167 233.5 175.2 233.5 180 237.5C186 242.5 191 245.5 195.5 255C199.1 262.6 203.667 275.833 205.5 281.5L243.5 302M243.5 302L250 295M243.5 302L252 305.5M250 295C248.5 293.667 245.8 290.3 247 287.5C248.5 284 257 266.5 269 249.5C281 232.5 293 218 296.5 216C297.027 215.699 298.08 215.158 299.5 214.45M250 295C257.822 299.667 276.169 310.1 286.983 314.5M325.5 202L332 185M325.5 202C318.598 205.248 305.632 211.396 299.5 214.45M325.5 202C323.833 207.5 320.5 219 320.5 221M332 185C325.667 183 311.6 177 306 169C299 159 295.5 151 295 146.5C294.5 142 293.5 124.5 295 113C296.2 103.8 296.5 100.5 296.5 99.9999M332 185C332.229 185 334.025 185.094 339 185.411M296.5 99.9999C294.667 97.3332 291 90.9999 291 86.9999C291 82.9999 291.667 77.6665 292 75.4999M296.5 99.9999L298 95.5C297.5 93 296.8 87.1 298 83.5L298 83.499C299.5 78.9996 300.5 75.9997 302 75.4999C303.5 75 305.5 75.4999 309 75.4999C312.5 75.4999 321.5 73.5 325 71.5C327.8 69.9 330.167 69.1667 331 69C331 69.8332 331.4 71.9997 333 73.9999C335 76.5 338 79.5 341.5 80C345 80.5 352 80.698 358 78.599M292 75.4999C288 75.8332 278.9 75.9999 274.5 73.9999C269 71.4999 262.5 66.9999 261.5 63.4999C260.5 59.9999 260.5 55.9999 262.5 53.9999M292 75.4999C293.2 66.2999 299.5 57.5277 302.5 54.2916M262.5 53.9999C264.5 51.9999 275.5 44.9999 286 42.9999C294.4 41.3999 299.833 40.6665 301.5 40.4999M262.5 53.9999C267.5 50.8332 281.6 46.1 298 52.5C299.426 53.0564 300.931 53.6563 302.5 54.2916M301.5 40.4999C304.333 34.3332 312.1 20.5999 320.5 14.9999C331 7.99985 346.5 0.999854 361 1.99985C375.5 2.99985 385.5 5 399 13C409.8 19.4 419.5 30 423 34.5C426.667 39.5 433.9 53.7 433.5 70.5C433.1 87.3 432.333 95.1667 432 97C431.848 97.709 431.655 98.5556 431.425 99.5M301.5 40.4999C313 40.1666 340.8 41.7 360 50.5C374.307 57.0575 391.582 65.2143 406.395 75.4999M424 118.5L425 117.5C427.714 113.09 430.14 104.772 431.425 99.5M424 118.5C425 119.333 427.1 121.9 427.5 125.5C428 130 429 135.5 424 142.5C419 149.5 411 153.5 410.5 153.5C410 153.5 401.5 155.5 399 154.5C396.5 153.5 397 159 391 164.5C387.55 167.663 386.304 168.776 386 169.028M424 118.5C423.167 118.167 420.2 117.3 415 116.5C409.8 115.7 404.167 122.167 402 125.5C399.333 118 393.8 101.5 393 95.5C392.2 89.5 395 84.1155 396.5 82.1732M386 169C378.333 175 360 186.8 348 186C344.229 185.749 341.28 185.556 339 185.411M386 169V169.028M386 169C385.906 169.094 385.881 169.127 386 169.028M386 176.5C387 176.5 389.4 177 391 179C392.6 181 399 190.5 402 195V197.5M386 176.5C386 176.5 386 178.282 386 185.411M386 176.5V169.028M386 176.5V185.411M402 197.5C410.333 200.167 428.5 206.5 434.5 210.5C435.511 211.174 436.557 211.838 437.622 212.5M402 197.5L388 235.5C386.287 234.085 383.528 231.937 380.5 229.815M480.5 307C480.5 306.333 481.3 304.8 484.5 304C487.7 303.2 487.833 300.333 487.5 299C486.333 295.667 483.3 287.3 480.5 280.5C477 272 459.5 233 455.5 226.5C452.039 220.876 444.46 216.749 437.622 212.5M480.5 307C482.833 312.833 487.5 326.3 487.5 333.5C487.5 342.5 490.5 349 483 359C477 367 457.5 387 448.5 396M480.5 307L437 317.771M448.5 396L450 432.5C448.333 433.833 444.6 436.6 443 437M448.5 396C444.234 399.592 436.641 406.376 430.916 412.5M443 437C439.667 437.333 433 438.7 433 441.5M443 437C442.599 437.1 442.357 445.662 442.23 459.5M360.5 474.5L385.5 640H443C442.5 589.418 441.851 500.875 442.23 459.5M360.5 474.5L352.5 640H291.5L289.632 448.5M360.5 474.5C359.896 470.5 353.915 469.833 351 470M289.5 435C288 434.667 284.9 433.4 284.5 431C284.273 429.637 284.68 406.079 285.226 379.5M289.5 435C300.667 437 324.9 440.6 332.5 439C340.1 437.4 343 435.667 343.5 435M289.5 435L289.632 448.5M286.5 322C286.645 319.724 286.807 317.204 286.983 314.5M286.5 322C286.251 332.557 285.937 346.322 285.629 360.5M299.5 214.45C297.667 218.467 293.7 229 292.5 239C291.416 248.032 288.62 289.282 286.983 314.5M437.622 212.5C432.748 217.833 422.5 230.6 420.5 239C420.419 239.339 420.338 239.679 420.257 240.021C417.811 250.273 415.048 261.855 416.5 272.5C417.7 281.3 424.667 307.833 428 320M428 320L437 317.771M428 320L424.108 333.186M437 317.771L445.5 343M445.5 343L428.559 365.5M445.5 343L453 334.5M376 406.5C373.5 406.667 368.1 406.9 366.5 406.5C364.9 406.1 364.833 403 365 401.5L368.5 397.5C373 395.167 383.5 389.9 389.5 387.5C395.5 385.1 405.333 386.5 409.5 387.5L413.5 385.5L428.559 365.5M376 406.5C372 410 363.9 417.2 363.5 418M376 406.5L386 399.5M363.5 418C363.1 418.8 361.333 422.333 360.5 424M363.5 418L360.5 424M360.5 424C360.167 425.333 359.9 428 361.5 428M361.5 428C363.1 428 365.5 428 366.5 428M361.5 428H366.5M366.5 428C365.333 429.5 363.1 432.7 363.5 433.5C364 434.5 362.5 436 366.5 437C369.203 437.676 370.194 437.448 370.436 437.16M366.5 428L384 419M370.5 437C376.1 436.2 387.5 430.667 392.5 428M370.5 437C370.478 437.051 370.457 437.104 370.436 437.16M370.5 437C370.5 437.052 370.481 437.107 370.436 437.16M382.5 442.5C380.333 442.5 375.3 442.3 372.5 441.5C369.822 440.735 369.98 438.384 370.436 437.16M382.5 442.5C382 443 381.3 444.3 382.5 445.5C384 447 390.5 449 395 446.5C399.5 444 419.5 429 424.5 420.5C425.806 418.28 428.141 415.468 430.916 412.5M382.5 442.5C387.7 441.3 396 435.333 399.5 432.5M343.5 435C343.5 440.167 344.8 450.4 350 450C355.2 449.6 404.167 447.5 428 446.5C429.667 446 433 444.3 433 441.5M343.5 435L338.663 383.5M428.559 365.5C428.039 358.5 426.9 343.2 426.5 338C426.283 335.176 425.27 333.798 424.149 333.207M433 441.5L430.916 412.5M339 185.411V202L351.5 221M351.5 221L356.5 219C358.5 219.667 363.9 221.5 369.5 223.5C372.597 224.606 376.754 227.19 380.5 229.815M351.5 221C345.456 216.683 335.6 221.425 328 226.846M351.5 221C351.372 221.765 351.236 222.601 351.091 223.5M351.5 221C361.809 213.028 381.36 196.478 385.298 188C385.753 187.021 386 186.149 386 185.411M320.5 221C320.5 223 320.5 229.833 320.5 233M320.5 221V233M320.5 233C322.417 231.177 325.037 228.96 328 226.846M343 337.781C341.507 337.882 340.476 337.957 340 338C335.6 338.4 334.833 342.5 335 344.5L336.878 364.5M343 337.781C343.523 325.554 344.517 301.466 345.114 284.5M343 337.781C347.129 337.501 354.79 337.021 364 336.456M328 226.846C328.137 229.405 328.449 233.44 328.964 238M345.114 284.5C345.279 279.828 345.414 275.696 345.5 272.5C345.872 258.729 349.159 235.522 351.091 223.5M345.114 284.5C342.076 279.833 335.3 268 332.5 258C330.852 252.115 329.701 244.521 328.964 238M345.114 284.5H345.5C347.5 282.5 353.5 275.7 361.5 264.5C369.5 253.3 377.5 236.71 380.5 229.815M285.629 360.5L336.878 364.5M285.629 360.5C285.491 366.834 285.355 373.251 285.226 379.5M336.878 364.5L338.663 383.5M285.226 379.5L338.663 383.5M364 336.456C363.667 334.137 363.6 329.4 366 329C368.4 328.6 384 327.167 391.5 326.5C392.667 326.5 395 326.9 395 328.5C395 330.1 395.333 333.2 395.5 334.549M364 336.456C373.568 335.869 384.809 335.19 395.5 334.549M395.5 334.549C405.163 333.97 414.376 333.422 421.5 333C422.143 332.786 423.079 332.718 423.971 333.12M431.425 99.5C425.336 90.4131 416.43 82.468 406.395 75.4999M406.395 75.4999C404.769 78.9044 400.897 80.9373 396.5 82.1732M396.5 82.1732C392.503 83.2969 388.072 83.7619 384.5 84C377 84.5 364.5 81.5 360 79.5C359.59 79.3179 358.911 79.0116 358 78.599M358 78.599C349.596 74.7946 321.436 61.9603 302.5 54.2916M289.632 448.5C302.754 449.667 331.9 452.4 343.5 454C358 456 359.5 460.5 374.5 461.5C389.5 462.5 424.461 463.5 442.23 459.5M424.108 333.186L424.149 333.207M424.108 333.186C424.063 333.163 424.017 333.141 423.971 333.12M424.149 333.207C424.09 333.176 424.03 333.147 423.971 333.12M351.091 223.5C345.87 224.667 334.136 229.2 328.964 238M330.5 141C331.5 141 331 139.5 329 138.5C327 137.5 323.5 135 324 130.5C324.4 126.9 330.167 125 333 124.5L334 123C333.833 122.333 332.9 121.1 330.5 121.5C327.5 122 323.5 124.5 322.5 125.5C321.5 126.5 320 129.5 320 133.5C320 136.7 324 139.833 326 141M330.5 141C329.7 141 327.167 141 326 141M330.5 141H326M403.5 134.5C403 135.5 402.5 139 403.5 140C404.3 140.8 405.167 140.333 405.5 140C405.833 139 407 136.2 409 133C411 129.8 415.5 129 417.5 129C419.5 128.766 419 127.569 418.5 127C417.167 126.667 413.7 126.243 410.5 127.214C406.54 128.416 404.05 133.399 403.516 134.469M403.5 134.5L403.516 134.469M403.5 134.5C403.505 134.49 403.51 134.48 403.516 134.469M135.5 154C134.833 152.833 134.1 150.5 136.5 150.5C139.5 150.5 146 153 147 157C148 161 148.5 163 146 167C143.5 171 138.5 171 137.5 171C136.5 171 136 169.5 138 168.5C140 167.5 144 165.5 144 162.5C144 159.5 143.5 157 140.5 156C138.1 155.2 136.167 154.333 135.5 154ZM108.5 177C108.667 176.167 109.4 174.9 111 176.5C111.328 176.828 111.643 177.197 111.976 177.587C113.668 179.569 115.814 182.082 122.5 182.5C130.5 183 138.5 182 139.5 181.5C140.3 181.1 142.167 180 143 179.5C143.833 179.167 145.5 178.9 145.5 180.5C145.5 182.5 144 184 138.5 185.5C133 187 122.5 188 117 186C111.642 184.052 109.5 180 108.5 177ZM154 241.5C153 252.333 147.2 278.1 132 294.5C113 315 97 333.5 81 339C68.2 343.4 64.3333 344.5 64 344.5C75.6667 338.167 102.5 321.1 116.5 303.5C134 281.5 150 261 154 241.5ZM159.5 291C157.167 315 137.8 366.8 79 382C128.6 361.6 153.333 312.833 159.5 291ZM74.5 409.5C94.4987 412 141.097 408.1 167.5 372.5C147.5 414.5 97.1667 414.667 74.5 409.5ZM324 150.5C324 151.5 333.4 156.9 339 156.5C346 156 354.5 154 356 151C357.2 148.6 357.667 147 357 146.5C355.333 148.5 350.535 151.766 346.5 152.5C341 153.5 334.101 152.12 331 151.5C328.5 151 324.333 150.167 324 150.5ZM313 87.5C315.5 87 321 86.3 323 87.5C325.5 89 326.5 89.5 327 88.5C327.5 87.5 328.5 87 327 85.5C325.5 84 321 81.5 316.5 83C312.9 84.2 309.333 86.8333 308 88C307.833 88.5 307.6 89.5 308 89.5C308.4 89.5 311.5 88.1667 313 87.5ZM312 107C312.667 105.833 313.5 102.5 317.5 102.5C320 102.5 321 106.382 321 107.5C321 109.5 320.833 114.667 320.5 117.5C319.833 119.167 318 121.5 316 121.5C313.5 121.5 311.5 119 311.5 117C311.5 115.4 311.5 110 312 107ZM357.5 111.5C358.167 110.333 359 107 363 107C365.5 107 366.5 110.882 366.5 112C366.5 114 366.333 119.167 366 122C365.333 123.667 363.5 126 361.5 126C359 126 357 123.5 357 121.5C357 119.9 357 114.5 357.5 111.5ZM355 93.5C355.5 93.5 361 91 365 92.5C368.2 93.7 373 96.6667 375 98H376.5V95.5C375.667 94.1667 373.1 91.1 369.5 89.5C365 87.5 361.5 87 358.5 88C356.1 88.8 354.167 90.3333 353.5 91C353.5 91.6667 353.8 93.1 355 93.5Z" stroke="black"/>
</g>
<defs>
<filter id="filter0_d_165_14" x="0.2" y="0.604053" width="493.194" height="648.696" filterUnits="userSpaceOnUse" color-interpolation-filters="sRGB">
<feFlood flood-opacity="0" result="BackgroundImageFix"/>
<feColorMatrix in="SourceAlpha" type="matrix" values="0 0 0 0 0 0 0 0 0 0 0 0 0 0 0 0 0 0 127 0" result="hardAlpha"/>
<feOffset dy="4"/>
<feGaussianBlur stdDeviation="2.4"/>
<feComposite in2="hardAlpha" operator="out"/>
<feColorMatrix type="matrix" values="0 0 0 0 0 0 0 0 0 0 0 0 0 0 0 0 0 0 0.51 0"/>
<feBlend mode="normal" in2="BackgroundImageFix" result="effect1_dropShadow_165_14"/>
<feBlend mode="normal" in="SourceGraphic" in2="effect1_dropShadow_165_14" result="shape"/>
</filter>
</defs>
</svg>
