<svg width="491" height="492" viewBox="0 0 491 492" fill="none" xmlns="http://www.w3.org/2000/svg">
<g filter="url(#filter0_d_165_13)">
<path d="M242 385V387.5L266.5 388.186L269.5 388.27L318.5 389.643L320.5 389.699L373.5 391.184L375.5 391.24L423.75 392.592L426 392.655L474 394V391.5L447 390.744L444.5 390.673L403 389.511L400.5 389.441L348 387.97L345.5 387.9L290.5 386.359L288 386.289L242 385Z" fill="#B28F75"/>
<path d="M242 413.5V416L288 415.405L290.5 415.373L345.5 414.662L347.5 414.636L400.5 413.95L403 413.918L444.5 413.381L447 413.349L474 413V410.5L426 411.121L423.75 411.15L375.5 411.774L373.5 411.8L320.5 412.485L318.5 412.511L269.5 413.144L266.5 413.183L242 413.5Z" fill="#B28F75"/>
<path d="M242 441.5V444L266.5 442.944L269.5 442.815L318.5 440.703L320.5 440.616L373.5 438.332L375.5 438.246L423.75 436.166L474 434V431L447 432.222L444.5 432.335L403 434.213L400.5 434.327L347.5 436.725L345.5 436.816L290.5 439.305L288 439.418L242 441.5Z" fill="#B28F75"/>
<path d="M318.5 440.703V464.443L320.5 464.18V440.616L318.5 440.703Z" fill="#B28F75"/>
<path d="M290.5 439.305V415.373L288 415.405V439.305V439.418L290.5 439.305Z" fill="#B28F75"/>
<path d="M266.5 442.944V471.279L269.5 470.885V442.815L266.5 442.944Z" fill="#B28F75"/>
<path d="M345.5 414.662V436.816L347.5 436.725V414.636L345.5 414.662Z" fill="#B28F75"/>
<path d="M373.5 438.332L373.124 457.262L375.5 456.949V438.246L373.5 438.332Z" fill="#B28F75"/>
<path d="M269.5 413.144V388.27L266.5 388.186V413.183L269.5 413.144Z" fill="#B28F75"/>
<path d="M318.5 389.643V412.511L320.5 412.485V389.699L318.5 389.643Z" fill="#B28F75"/>
<path d="M373.5 391.184V411.8L375.5 411.774V391.24L373.5 391.184Z" fill="#B28F75"/>
<path d="M400.5 413.95V434.327L403 434.213V413.918L400.5 413.95Z" fill="#B28F75"/>
<path d="M444.5 413.381V432.335L447 432.222V413.349L444.5 413.381Z" fill="#B28F75"/>
<path d="M423.75 392.592V411.15L426 411.121V392.655L423.75 392.592Z" fill="#B28F75"/>
<path d="M444.5 370.966V390.673L447 390.744V371.138L444.5 370.966Z" fill="#B28F75"/>
<path d="M400.5 367.931V389.441L403 389.511V368.103L400.5 367.931Z" fill="#B28F75"/>
<path d="M345.5 364.138V387.9L348 387.97V364.31L345.5 364.138Z" fill="#B28F75"/>
<path d="M288 360.172V386.289L290.5 386.359V360.345L288 360.172Z" fill="#B28F75"/>
<path d="M229 443.293V473.255L231.5 473.494V443.429L229 443.293Z" fill="#D1AA86"/>
<path d="M242 444V441.5L206.573 439.606L204 439.469L144 436.261L141.5 436.127L84 433.053L81.5 432.92L46 431.022L43.5 430.888L17.5353 429.5L17.5318 431.799L28.2091 432.379L30.236 432.49L62 434.216L64.5 434.352L111.5 436.907L114.5 437.07L175.5 440.385L178.25 440.535L229 443.293L231.5 443.429L242 444Z" fill="#D1AA86"/>
<path d="M229 387.529V413.095L231.5 413.172V387.523L229 387.529Z" fill="#B28F75"/>
<path d="M178.25 411.512V387.642L175.5 387.648V411.426L178.25 411.512Z" fill="#B28F75"/>
<path d="M206.573 385.158V358.5L204 358.609V385.169L206.573 385.158Z" fill="#B28F75"/>
<path d="M114.5 409.523V387.784L111.5 387.791V409.43L114.5 409.523Z" fill="#B28F75"/>
<path d="M144 385.437V361.149L141.5 361.255V385.448L144 385.437Z" fill="#B28F75"/>
<path d="M84 385.704V363.69L81.5 363.796V385.715L84 385.704Z" fill="#B28F75"/>
<path d="M47 385.869V365.256L44.5 365.362V385.88L47 385.869Z" fill="#B28F75"/>
<path d="M30 387.972V406.5V406.888L32 406.95V387.968L30 387.972Z" fill="#B28F75"/>
<path d="M62 387.901V407.886L64.5 407.964V387.895L62 387.901Z" fill="#B28F75"/>
<path d="M46 431.022V409.661L43.5 409.581V430.888L46 431.022Z" fill="#B28F75"/>
<path d="M81.5 410.81V432.92L84 433.053V410.89L81.5 410.81Z" fill="#B28F75"/>
<path d="M28.2091 432.379L28.5 454.053L30.236 454.22V432.49L28.2091 432.379Z" fill="#D1AA86"/>
<path d="M204 414.771V439.469L206.573 439.606V414.854L204 414.771Z" fill="#D1AA86"/>
<path d="M175.5 440.385V468.131L178.25 468.395V440.535L175.5 440.385Z" fill="#D1AA86"/>
<path d="M111.5 436.907V462.002L114.5 462.29V437.07L111.5 436.907Z" fill="#D1AA86"/>
<path d="M62 434.216V457.262L64.5 457.501V434.352L62 434.216Z" fill="#D1AA86"/>
<path d="M141.5 413.5V436.127L144 436.261V412.831L141.5 412.75V413.5Z" fill="#D1AA86"/>
<path d="M242 416V413.5L231.5 413.172L229 413.095L178.25 411.512L175.5 411.426L114.5 409.523L111.5 409.43L64.5 407.964L62 407.886L32 406.95L30 406.888L17.5698 406.5L17.5665 408.742L43.5 409.581L46 409.661L81.5 410.81L84 410.89L141.5 412.75L144 412.831L204 414.771L206.573 414.854L242 416Z" fill="#D1AA86"/>
<path d="M17.6006 386L17.5991 387L17.5976 388L30 387.972L32 387.968L62 387.901L64.5 387.895L111.5 387.791L114.5 387.784L175.5 387.648L178.25 387.642L229 387.529L231.5 387.523L242 387.5V385L206.573 385.158L204 385.169L144 385.437L141.5 385.448L84 385.704L81.5 385.715L47 385.869L44.5 385.88L17.6006 386Z" fill="#D1AA86"/>
<path d="M178.25 440.535V468.395L229 473.255V443.293L178.25 440.535Z" fill="#977056"/>
<path d="M114.5 437.07V462.29L175.5 468.131V440.385L114.5 437.07Z" fill="#977056"/>
<path d="M144 412.831V436.261L204 439.469V414.771L144 412.831Z" fill="#977056"/>
<path d="M242 441.5V416L206.573 414.854V439.606L242 441.5Z" fill="#977056"/>
<path d="M178.25 387.642V411.512L229 413.095V387.529L178.25 387.642Z" fill="#977056"/>
<path d="M242 413.5V387.5L231.5 387.523V413.172L242 413.5Z" fill="#977056"/>
<path d="M242 385V357L206.573 358.5V385.158L242 385Z" fill="#977056"/>
<path d="M204 385.169V358.609L144 361.149V385.437L204 385.169Z" fill="#977056"/>
<path d="M84 363.69V385.704L141.5 385.448V361.255L84 363.69Z" fill="#977056"/>
<path d="M114.5 387.784V409.523L175.5 411.426V387.648L114.5 387.784Z" fill="#977056"/>
<path d="M84 410.89V433.053L141.5 436.127V413.5V412.75L84 410.89Z" fill="#977056"/>
<path d="M64.5 387.895V407.964L111.5 409.43V387.791L64.5 387.895Z" fill="#977056"/>
<path d="M47 365.256V385.869L81.5 385.715V363.796L47 365.256Z" fill="#977056"/>
<path d="M17.6299 366.5L17.6006 386L44.5 385.88V365.362L17.6299 366.5Z" fill="#977056"/>
<path d="M32 387.968V406.95L62 407.886V387.901L32 387.968Z" fill="#977056"/>
<path d="M17.5976 388L17.5698 406.5L30 406.888V406.5V387.972L17.5976 388Z" fill="#977056"/>
<path d="M46 409.661V431.022L81.5 432.92V410.81L46 409.661Z" fill="#977056"/>
<path d="M17.5665 408.742L17.5353 429.5L43.5 430.888V409.581L17.5665 408.742Z" fill="#977056"/>
<path d="M64.5 434.352V457.501L111.5 462.002V436.907L64.5 434.352Z" fill="#977056"/>
<path d="M30.236 432.49V454.22L62 457.262V434.216L30.236 432.49Z" fill="#977056"/>
<path d="M17.5318 431.799L17.5 453L28.5 454.053L28.2091 432.379L17.5318 431.799Z" fill="#977056"/>
<path d="M242 474.5V444L231.5 443.429V473.494L242 474.5Z" fill="#977056"/>
<path fill-rule="evenodd" clip-rule="evenodd" d="M17.8792 200.5L17.6299 366.5L44.5 365.362L47 365.256L81.5 363.796L84 363.69L141.5 361.255L144 361.149L204 358.609L206.573 358.5L242 357V134.5L17.8792 200.5ZM96 191.5L47 205V228L96 216.5V191.5ZM197 165L132 182.5V207L197 194V165ZM219 164.5C217 159.3 214.5 162.333 213.5 164.5C210 172 208.5 179.5 208.5 182C208.5 184.5 212 188.5 214 190C215.6 191.2 217.333 190.5 218 190C218.833 189.167 221 186.4 223 182C225.5 176.5 221.5 171 219 164.5ZM36.5 211C35.3 207 32.6667 209.333 31.5 211C29.5 214.5 28 223.5 28 225C28 226.5 29 227.5 30.5 230C31.7 232 33.6667 230.833 34.5 230C35 229.5 36.4 227.8 38 225C40 221.5 38 216 36.5 211ZM115.5 189.5C113.1 185.1 110.5 187.667 109.5 189.5C105 197 104 205.5 105.5 207.5C106.7 209.1 109.333 210.5 110.5 211C111.833 210.667 114.7 209.9 115.5 209.5C116.5 209 118.5 204 119 202C119.5 200 118.5 195 115.5 189.5Z" fill="#363538"/>
<path d="M26.5001 105C17.3001 108.6 17.0001 116.5 18.0001 120L17.9235 171L242 97V17.1166C239.513 17.1084 237.495 17.6017 236.5 17.9999C170.333 45.4999 35.7001 101.4 26.5001 105Z" fill="#363537"/>
<path d="M242 357V385L288 386.289V360.172L242 357Z" fill="#6F5348"/>
<path d="M242 416V441.5L288 439.418V439.305V415.405L242 416Z" fill="#6F5348"/>
<path d="M373.5 411.8V391.184L320.5 389.699V412.485L373.5 411.8Z" fill="#6F5348"/>
<path d="M269.5 388.27V413.144L318.5 412.511V389.643L269.5 388.27Z" fill="#6F5348"/>
<path d="M290.5 360.345V386.359L345.5 387.9V364.138L290.5 360.345Z" fill="#6F5348"/>
<path d="M242 387.5V413.5L266.5 413.183V388.186L242 387.5Z" fill="#6F5348"/>
<path d="M242 444V474.5L266.5 471.279V442.944L242 444Z" fill="#6F5348"/>
<path d="M269.5 442.815V470.885L318.5 464.443V440.703L269.5 442.815Z" fill="#6F5348"/>
<path d="M400.5 434.327V413.95L347.5 414.636V436.725L400.5 434.327Z" fill="#6F5348"/>
<path d="M290.5 415.373V439.305L345.5 436.816V414.662L290.5 415.373Z" fill="#6F5348"/>
<path d="M373.124 457.262L373.5 438.332L320.5 440.616V464.18L373.124 457.262Z" fill="#6F5348"/>
<path d="M423.75 450.606V436.166L375.5 438.246V456.949L423.75 450.606Z" fill="#6F5348"/>
<path d="M444.5 432.335V413.381L403 413.918V434.213L444.5 432.335Z" fill="#6F5348"/>
<path d="M474 410.5V394L426 392.655V411.121L474 410.5Z" fill="#6F5348"/>
<path d="M423.75 411.15V392.592L375.5 391.24V411.774L423.75 411.15Z" fill="#6F5348"/>
<path d="M474 391.5V373L447 371.138V390.744L474 391.5Z" fill="#6F5348"/>
<path d="M444.5 390.673V370.966L403 368.103V389.511L444.5 390.673Z" fill="#6F5348"/>
<path d="M400.5 389.441V367.931L348 364.31V387.97L400.5 389.441Z" fill="#6F5348"/>
<path d="M474 431V413L447 413.349V432.222L474 431Z" fill="#6F5348"/>
<path fill-rule="evenodd" clip-rule="evenodd" d="M242 134.5V357L288 360.172L290.5 360.345L345.5 364.138L348 364.31L400.5 367.931L403 368.103L444.5 370.966L447 371.138L474 373V242V219V201L242 134.5ZM281.5 165V190.5L337 205.5V180.5L281.5 165ZM268 165C265.6 159.4 263 162.667 262 165C258 175 258 181.5 258.5 183.5L263.5 190.5H266.5C267.833 189.333 270.8 186.3 272 183.5C273.5 180 271 172 268 165ZM459.5 213.239C457.1 207.639 454.5 210.906 453.5 213.239C449.5 223.239 449.5 229.739 450 231.739L455 238.739H458C459.333 237.572 462.3 234.539 463.5 231.739C465 228.239 462.5 220.239 459.5 213.239ZM360.5 187.104C358.1 181.504 355.5 184.771 354.5 187.104C350.5 197.104 350.5 203.604 351 205.604L356 212.604H359C360.333 211.437 363.3 208.404 364.5 205.604C366 202.104 363.5 194.104 360.5 187.104ZM381.481 217.351V193L439.5 209.305V232.808L381.481 217.351Z" fill="black"/>
<path d="M467 104C395.833 76 252.3 19.5999 247.5 17.9999C245.567 17.3555 243.677 17.122 242 17.1166V97L474 170.5V112C474 107.6 469.333 104.833 467 104Z" fill="black"/>
<path d="M17.8792 200.5L242 134.5V97L17.9235 171L17.8792 200.5Z" fill="#FBC134"/>
<path d="M132 182.5L197 165V194L132 207V182.5Z" fill="#FBC134"/>
<path d="M47 205L96 191.5V216.5L47 228V205Z" fill="#FBC134"/>
<path d="M31.5 211C32.6667 209.333 35.3 207 36.5 211C38 216 40 221.5 38 225C36.4 227.8 35 229.5 34.5 230C33.6667 230.833 31.7 232 30.5 230C29 227.5 28 226.5 28 225C28 223.5 29.5 214.5 31.5 211Z" fill="#FBC134"/>
<path d="M109.5 189.5C110.5 187.667 113.1 185.1 115.5 189.5C118.5 195 119.5 200 119 202C118.5 204 116.5 209 115.5 209.5C114.7 209.9 111.833 210.667 110.5 211C109.333 210.5 106.7 209.1 105.5 207.5C104 205.5 105 197 109.5 189.5Z" fill="#FBC134"/>
<path d="M213.5 164.5C214.5 162.333 217 159.3 219 164.5C221.5 171 225.5 176.5 223 182C221 186.4 218.833 189.167 218 190C217.333 190.5 215.6 191.2 214 190C212 188.5 208.5 184.5 208.5 182C208.5 179.5 210 172 213.5 164.5Z" fill="#FBC134"/>
<path d="M242 134.5L474 201V170.5L242 97V134.5Z" fill="#D3A32E"/>
<path d="M281.5 190.5V165L337 180.5V205.5L281.5 190.5Z" fill="#D3A32E"/>
<path d="M381.481 193V217.351L439.5 232.808V209.305L381.481 193Z" fill="#D3A32E"/>
<path d="M453.5 213.239C454.5 210.906 457.1 207.639 459.5 213.239C462.5 220.239 465 228.239 463.5 231.739C462.3 234.539 459.333 237.572 458 238.739H455L450 231.739C449.5 229.739 449.5 223.239 453.5 213.239Z" fill="#D3A32E"/>
<path d="M354.5 187.104C355.5 184.771 358.1 181.504 360.5 187.104C363.5 194.104 366 202.104 364.5 205.604C363.3 208.404 360.333 211.437 359 212.604H356L351 205.604C350.5 203.604 350.5 197.104 354.5 187.104Z" fill="#D3A32E"/>
<path d="M262 165C263 162.667 265.6 159.4 268 165C271 172 273.5 180 272 183.5C270.8 186.3 267.833 189.333 266.5 190.5H263.5L258.5 183.5C258 181.5 258 175 262 165Z" fill="#D3A32E"/>
<path fill-rule="evenodd" clip-rule="evenodd" d="M474 434V444L426 450.31V436.069L474 434Z" fill="#6F5348"/>
<path d="M426 436.069L423.75 436.166V450.606L426 450.31V436.069Z" fill="#B28F75"/>
<path d="M474 112C474 107.6 469.333 104.833 467 104C395.833 76 252.3 19.5999 247.5 17.9999C245.567 17.3555 243.677 17.122 242 17.1166M474 112C474 113.395 474 136.341 474 170.5M474 112V170.5M474 444C474 440.761 474 437.425 474 434M474 444L426 450.31M474 444V434M242 474.5V444M242 474.5L266.5 471.279M242 474.5L231.5 473.494M242 17.1166C239.513 17.1084 237.495 17.6017 236.5 17.9999C170.333 45.4999 35.7001 101.4 26.5001 105C17.3001 108.6 17.0001 116.5 18.0001 120L17.9235 171M242 17.1166V97M17.6299 366.5L17.8792 200.5M17.6299 366.5L17.6006 386M17.6299 366.5L44.5 365.362M242 357V134.5M242 357V385M242 357L206.573 358.5M242 357L288 360.172M474 373C474 379.277 474 385.453 474 391.5M474 373L447 371.138M474 373C474 330.813 474 284.107 474 242M474 373V391.5M474 373V242M17.8792 200.5L242 134.5M17.8792 200.5L17.9235 171M242 134.5L474 201M242 134.5V97M474 201C474 190.129 474 179.891 474 170.5M474 201C474 206.829 474 212.84 474 219M474 201V219M474 201V170.5M474 170.5L242 97M242 97L17.9235 171M17.6006 386L17.5991 387L17.5976 388M17.6006 386L44.5 385.88M242 385V387.5M242 385L206.573 385.158M242 385L288 386.289M242 387.5V413.5M242 387.5L266.5 388.186M242 387.5L231.5 387.523M17.5976 388L17.5665 408.742M17.5976 388L30 387.972M17.5976 388L17.5698 406.5M17.5698 406.5L17.5353 429.5M17.5698 406.5L30 406.888M17.5698 406.5L17.5665 408.742M242 413.5V416M242 413.5L266.5 413.183M242 413.5L231.5 413.172M242 416V441.5M242 416L288 415.405M242 416L206.573 414.854M17.5665 408.742L17.5353 429.5M17.5665 408.742L43.5 409.581M17.5353 429.5L17.5318 431.799M17.5353 429.5L43.5 430.888M242 441.5V444M242 441.5L288 439.418M242 441.5L206.573 439.606M242 444L266.5 442.944M242 444L231.5 443.429M17.5318 431.799L17.5 453L28.5 454.053M17.5318 431.799L28.2091 432.379M28.2091 432.379L28.5 454.053M28.2091 432.379L30.236 432.49M28.5 454.053L30.236 454.22M30.236 432.49V454.22M30.236 432.49L62 434.216M30.236 454.22L62 457.262M46 409.661V431.022M46 409.661L43.5 409.581M46 409.661L81.5 410.81M46 431.022L43.5 430.888M46 431.022L81.5 432.92M43.5 409.581V430.888M30 387.972V406.5V406.888M30 387.972L32 387.968M30 406.888L32 406.95M32 387.968V406.95M32 387.968L62 387.901M32 406.95L62 407.886M47 365.256V385.869M47 365.256L44.5 365.362M47 365.256L81.5 363.796M47 385.869L44.5 385.88M47 385.869L81.5 385.715M44.5 365.362V385.88M84 363.69V385.704M84 363.69L81.5 363.796M84 363.69L141.5 361.255M84 385.704L81.5 385.715M84 385.704L141.5 385.448M81.5 363.796V385.715M81.5 410.81V432.92M81.5 410.81L84 410.89M81.5 432.92L84 433.053M84 410.89V433.053M84 410.89L141.5 412.75M84 433.053L141.5 436.127M206.573 358.5V385.158M206.573 358.5L204 358.609M206.573 385.158L204 385.169M204 358.609V385.169M204 358.609L144 361.149M204 385.169L144 385.437M474 391.5C474 392.336 474 393.169 474 394M474 391.5L447 390.744M474 391.5V394M474 394C474 399.626 474 405.134 474 410.5M474 394L426 392.655M474 394V410.5M474 410.5C474 411.337 474 412.17 474 413M474 410.5L426 411.121M474 410.5V413M474 413C474 419.212 474 425.225 474 431M474 413L447 413.349M474 413V431M474 431C474 432.007 474 433.007 474 434M474 431L447 432.222M474 431V434M474 434L423.75 436.166M474 434L426 436.069M269.5 388.27V413.144M269.5 388.27L266.5 388.186M269.5 388.27L318.5 389.643M269.5 413.144L266.5 413.183M269.5 413.144L318.5 412.511M266.5 388.186V413.183M288 360.172V386.289M288 360.172L290.5 360.345M288 386.289L290.5 386.359M290.5 360.345V386.359M290.5 360.345L345.5 364.138M290.5 386.359L345.5 387.9M290.5 415.373V439.305M290.5 415.373L288 415.405M290.5 415.373L345.5 414.662M290.5 439.305L288 439.418M290.5 439.305L345.5 436.816M288 415.405V439.305V439.418M62 387.901V407.886M62 387.901L64.5 387.895M62 407.886L64.5 407.964M64.5 387.895V407.964M64.5 387.895L111.5 387.791M64.5 407.964L111.5 409.43M62 434.216V457.262M62 434.216L64.5 434.352M62 457.262L64.5 457.501M64.5 434.352V457.501M64.5 434.352L111.5 436.907M64.5 457.501L111.5 462.002M266.5 442.944V471.279M266.5 442.944L269.5 442.815M266.5 471.279L269.5 470.885M269.5 442.815V470.885M269.5 442.815L318.5 440.703M269.5 470.885L318.5 464.443M144 361.149V385.437M144 361.149L141.5 361.255M144 385.437L141.5 385.448M141.5 361.255V385.448M114.5 387.784V409.523M114.5 387.784L111.5 387.791M114.5 387.784L175.5 387.648M114.5 409.523L111.5 409.43M114.5 409.523L175.5 411.426M111.5 387.791V409.43M141.5 436.127V413.5V412.75M141.5 436.127L144 436.261M144 412.831V436.261M144 412.831L141.5 412.75M144 412.831L204 414.771M144 436.261L204 439.469M178.25 387.642V411.512M178.25 387.642L175.5 387.648M178.25 387.642L229 387.529M178.25 411.512L175.5 411.426M178.25 411.512L229 413.095M175.5 387.648V411.426M111.5 436.907V462.002M111.5 436.907L114.5 437.07M111.5 462.002L114.5 462.29M114.5 437.07V462.29M114.5 437.07L175.5 440.385M114.5 462.29L175.5 468.131M175.5 440.385V468.131M175.5 440.385L178.25 440.535M175.5 468.131L178.25 468.395M178.25 440.535V468.395M178.25 440.535L229 443.293M178.25 468.395L229 473.255M204 414.771V439.469M204 414.771L206.573 414.854M204 439.469L206.573 439.606M206.573 414.854V439.606M229 443.293V473.255M229 443.293L231.5 443.429M229 473.255L231.5 473.494M231.5 443.429V473.494M229 413.095V387.529M229 413.095L231.5 413.172M229 387.529L231.5 387.523M231.5 387.523V413.172M345.5 364.138V387.9M345.5 364.138L348 364.31M345.5 387.9L348 387.97M345.5 414.662V436.816M345.5 414.662L347.5 414.636M345.5 436.816L347.5 436.725M318.5 389.643V412.511M318.5 389.643L320.5 389.699M318.5 412.511L320.5 412.485M318.5 440.703V464.443M318.5 440.703L320.5 440.616M318.5 464.443L320.5 464.18M373.5 391.184V411.8M373.5 391.184L320.5 389.699M373.5 391.184L375.5 391.24M373.5 411.8L320.5 412.485M373.5 411.8L375.5 411.774M373.5 438.332L373.124 457.262M373.5 438.332L320.5 440.616M373.5 438.332L375.5 438.246M373.124 457.262L320.5 464.18M373.124 457.262L375.5 456.949M400.5 367.931V389.441M400.5 367.931L348 364.31M400.5 367.931L403 368.103M400.5 389.441L348 387.97M400.5 389.441L403 389.511M400.5 413.95V434.327M400.5 413.95L347.5 414.636M400.5 413.95L403 413.918M400.5 434.327L347.5 436.725M400.5 434.327L403 434.213M423.75 392.592V411.15M423.75 392.592L375.5 391.24M423.75 392.592L426 392.655M423.75 411.15L375.5 411.774M423.75 411.15L426 411.121M423.75 436.166V450.606M423.75 436.166L375.5 438.246M423.75 436.166L426 436.069M423.75 450.606L375.5 456.949M423.75 450.606L426 450.31M444.5 370.966V390.673M444.5 370.966L403 368.103M444.5 370.966L447 371.138M444.5 390.673L403 389.511M444.5 390.673L447 390.744M444.5 413.381V432.335M444.5 413.381L403 413.918M444.5 413.381L447 413.349M444.5 432.335L403 434.213M444.5 432.335L447 432.222M348 364.31V387.97M320.5 389.699V412.485M347.5 414.636V436.725M320.5 440.616V464.18M375.5 438.246V456.949M375.5 391.24V411.774M403 368.103V389.511M403 413.918V434.213M426 392.655V411.121M426 436.069V450.31M447 413.349V432.222M447 371.138V390.744M474 219C474 226.468 474 234.154 474 242M474 219V242M381.481 193V217.351L439.5 232.808V209.305M381.481 193C401.188 198.538 419.064 203.562 439.5 209.305M381.481 193L439.5 209.305M47 205L96 191.5V216.5L47 228V205ZM132 182.5L197 165V194L132 207V182.5ZM281.5 190.5V165L337 180.5V205.5L281.5 190.5ZM213.5 164.5C214.5 162.333 217 159.3 219 164.5C221.5 171 225.5 176.5 223 182C221 186.4 218.833 189.167 218 190C217.333 190.5 215.6 191.2 214 190C212 188.5 208.5 184.5 208.5 182C208.5 179.5 210 172 213.5 164.5ZM31.5 211C32.6667 209.333 35.3 207 36.5 211C38 216 40 221.5 38 225C36.4 227.8 35 229.5 34.5 230C33.6667 230.833 31.7 232 30.5 230C29 227.5 28 226.5 28 225C28 223.5 29.5 214.5 31.5 211ZM109.5 189.5C110.5 187.667 113.1 185.1 115.5 189.5C118.5 195 119.5 200 119 202C118.5 204 116.5 209 115.5 209.5C114.7 209.9 111.833 210.667 110.5 211C109.333 210.5 106.7 209.1 105.5 207.5C104 205.5 105 197 109.5 189.5ZM262 165C263 162.667 265.6 159.4 268 165C271 172 273.5 180 272 183.5C270.8 186.3 267.833 189.333 266.5 190.5H263.5L258.5 183.5C258 181.5 258 175 262 165ZM453.5 213.239C454.5 210.906 457.1 207.639 459.5 213.239C462.5 220.239 465 228.239 463.5 231.739C462.3 234.539 459.333 237.572 458 238.739H455L450 231.739C449.5 229.739 449.5 223.239 453.5 213.239ZM354.5 187.104C355.5 184.771 358.1 181.504 360.5 187.104C363.5 194.104 366 202.104 364.5 205.604C363.3 208.404 360.333 211.437 359 212.604H356L351 205.604C350.5 203.604 350.5 197.104 354.5 187.104Z" stroke="black"/>
</g>
<defs>
<filter id="filter0_d_165_13" x="0.899267" y="0.516455" width="489.701" height="490.587" filterUnits="userSpaceOnUse" color-interpolation-filters="sRGB">
<feFlood flood-opacity="0" result="BackgroundImageFix"/>
<feColorMatrix in="SourceAlpha" type="matrix" values="0 0 0 0 0 0 0 0 0 0 0 0 0 0 0 0 0 0 127 0" result="hardAlpha"/>
<feOffset/>
<feGaussianBlur stdDeviation="8.05"/>
<feComposite in2="hardAlpha" operator="out"/>
<feColorMatrix type="matrix" values="0 0 0 0 0 0 0 0 0 0 0 0 0 0 0 0 0 0 0.87 0"/>
<feBlend mode="normal" in2="BackgroundImageFix" result="effect1_dropShadow_165_13"/>
<feBlend mode="normal" in="SourceGraphic" in2="effect1_dropShadow_165_13" result="shape"/>
</filter>
</defs>
</svg>
