<svg width="786" height="317" viewBox="0 0 786 317" fill="none" xmlns="http://www.w3.org/2000/svg">
<g filter="url(#filter0_d_165_18)">
<path d="M785 174.5L401.5 149L74.5 166.21L64.7894 166.721L21.5 169C37.5 214 61 221 69.5 226C76.3 230 128 236.333 153 239C148.5 240.667 138 244.9 132 248.5C124.5 253 136.5 260 144.5 262C152.5 264 232 272 235.5 272C239 272 374.5 293.5 488 288C601.5 282.5 700.5 259 712.5 256C724.5 253 723.5 249.5 723 245C722.6 241.4 707.833 235.833 700.5 233.5C706.167 233.333 722.1 232.2 740.5 229C758.9 225.8 777.833 217.333 785 213.5V174.5Z" fill="#EC8305"/>
<path d="M401.5 149L785 174.5V160.5H781C780 158.167 777.3 153.2 774.5 152C771.7 150.8 767 151.5 765 152C764 147.5 760.1 137.9 752.5 135.5C743 132.5 733 132.5 726 138C720.4 142.4 717.667 146.833 717 148.5C715.5 147 711.4 144.2 707 145C701.5 146 696.5 149 695.5 150.5C694.5 152 690.5 146 689 144C687.5 142 678.5 131.5 668 130C659.6 128.8 649.167 132.833 645 135C642.333 130.833 636.3 122.2 633.5 121C627.333 120 612.2 117.3 601 114.5C587 111 570 109 515 114.5C460 120 470 125.5 447.5 118C425 110.5 416.5 104 359.5 104C302.5 104 325 111 297 111C269 111 235.5 104 217 104C202.2 104 183.167 118.667 175.5 126C170 127 165.5 139.5 161.5 134.5C157.5 129.5 147.5 129.5 136.5 130.5C125.5 131.5 124 148.5 118.5 144.5C113 140.5 106.5 142 100.5 144.5C94.5 147 97 159 90 158C84.4 157.2 77.3333 163.14 74.5 166.21L401.5 149Z" fill="#FFA63C"/>
<path d="M90 109C79.2 111.4 68.6929 148.481 64.7894 166.721L74.5 166.21C77.3333 163.14 84.4 157.2 90 158C97 159 94.5 147 100.5 144.5C106.5 142 113 140.5 118.5 144.5C124 148.5 125.5 131.5 136.5 130.5C147.5 129.5 157.5 129.5 161.5 134.5C165.5 139.5 170 127 175.5 126C183.167 118.667 202.2 104 217 104C235.5 104 269 111 297 111C325 111 302.5 104 359.5 104C416.5 104 425 110.5 447.5 118C470 125.5 460 120 515 114.5C570 109 587 111 601 114.5C612.2 117.3 627.333 120 633.5 121C636.3 122.2 642.333 130.833 645 135C649.167 132.833 659.6 128.8 668 130C678.5 131.5 687.5 142 689 144C690.5 146 694.5 152 695.5 150.5C696.5 149 701.5 146 707 145C711.4 144.2 715.5 147 717 148.5C717.667 146.833 720.4 142.4 726 138C733 132.5 743 132.5 752.5 135.5C760.1 137.9 764 147.5 765 152C767 151.5 771.7 150.8 774.5 152C777.3 153.2 780 158.167 781 160.5H785V128.5C784.167 128.667 782.2 128.3 781 125.5C779.5 122 773.5 118 766 114.5C760 111.7 752.167 115.667 749 118C747.333 113.333 742.1 103.4 734.5 101C726.9 98.6 718.333 102 715 104C713.833 99.5 710 89.3 704 84.5C698 79.7 685.833 80.1667 680.5 81C677.5 76.8333 669.1 67.8 659.5 65C649.9 62.2 638.167 70.1667 633.5 74.5C629.667 71.3333 619.9 65 611.5 65C601 65 586.5 77.5 564 76C541.5 74.5 550.5 62.5001 515 65C479.5 67.4999 483.5 86 463 81C442.5 76 439 65 410.5 65C382 65 370.5 60 348.5 70.5C326.5 81 331 82 297 73.5C263 65 266.5 54 247.5 65C228.5 76 233 81.5 217 76C204.2 71.6 185 72.5 177 73.5C172 73.5 160.8 74 156 76C151.2 78 146.333 86.1666 144.5 89.9999C140.333 88.3333 129.8 86 121 89.9999C112.2 93.9998 109 105.667 108.5 111C106.833 109.333 100.8 106.6 90 109Z" fill="#EC8305"/>
<path d="M67 89.9999C45.8 100.8 27.8333 147.167 21.5 169L64.7894 166.721C68.6929 148.481 79.2 111.4 90 109C100.8 106.6 106.833 109.333 108.5 111C109 105.667 112.2 93.9998 121 89.9999C129.8 86 140.333 88.3333 144.5 89.9999C146.333 86.1666 151.2 78 156 76C160.8 74 172 73.5 177 73.5C185 72.5 204.2 71.6 217 76C233 81.5 228.5 76 247.5 65C266.5 54 263 65 297 73.5C331 82 326.5 81 348.5 70.5C370.5 60 382 65 410.5 65C439 65 442.5 76 463 81C483.5 86 479.5 67.4999 515 65C550.5 62.5001 541.5 74.5 564 76C586.5 77.5 601 65 611.5 65C619.9 65 629.667 71.3333 633.5 74.5C638.167 70.1667 649.9 62.2 659.5 65C669.1 67.8 677.5 76.8333 680.5 81C685.833 80.1667 698 79.7 704 84.5C710 89.3 713.833 99.5 715 104C718.333 102 726.9 98.6 734.5 101C742.1 103.4 747.333 113.333 749 118C752.167 115.667 760 111.7 766 114.5C773.5 118 779.5 122 781 125.5C782.2 128.3 784.167 128.667 785 128.5V70.5C779.333 68.1667 765.1 62.3 753.5 57.5C739 51.5 723 25 700.5 21C678 17 674.5 23.5 646 38C617.5 52.5 546 49.5 515 47C484 44.5 450 21.4999 423.5 15.9999C397 10.4999 347 16.9999 297 28.9999C254.414 39.2205 196.957 32.3936 179 29.8354C175.874 29.39 173.945 29.074 173.5 28.9999C170.5 28.4999 153 29.4999 140.5 34.9999C128 40.4999 113.5 60.9999 106.5 67.4999C99.5 73.9999 93.5 76.4999 67 89.9999Z" fill="#FFA63C"/>
<path d="M21.5 169C37.5 214 61 221 69.5 226C76.3 230 128 236.333 153 239C148.5 240.667 138 244.9 132 248.5C124.5 253 136.5 260 144.5 262C152.5 264 232 272 235.5 272C239 272 374.5 293.5 488 288C601.5 282.5 700.5 259 712.5 256C724.5 253 723.5 249.5 723 245C722.6 241.4 707.833 235.833 700.5 233.5C706.167 233.333 722.1 232.2 740.5 229C758.9 225.8 777.833 217.333 785 213.5V174.5M21.5 169C27.8333 147.167 45.8 100.8 67 89.9999C93.5 76.4999 99.5 73.9999 106.5 67.4999C113.5 60.9999 128 40.4999 140.5 34.9999C153 29.4999 170.5 28.4999 173.5 28.9999C173.945 29.074 175.874 29.39 179 29.8354C196.957 32.3936 254.414 39.2205 297 28.9999C347 16.9999 397 10.4999 423.5 15.9999C450 21.4999 484 44.5 515 47C546 49.5 617.5 52.5 646 38C674.5 23.5 678 17 700.5 21C723 25 739 51.5 753.5 57.5C765.1 62.3 779.333 68.1667 785 70.5V128.5M21.5 169L64.7894 166.721M785 174.5L401.5 149L74.5 166.21M785 174.5V160.5M64.7894 166.721C68.6929 148.481 79.2 111.4 90 109C100.8 106.6 106.833 109.333 108.5 111C109 105.667 112.2 93.9998 121 89.9999C129.8 86 140.333 88.3333 144.5 89.9999C146.333 86.1666 151.2 78 156 76C160.8 74 172 73.5 177 73.5C185 72.5 204.2 71.6 217 76C233 81.5 228.5 76 247.5 65C266.5 54 263 65 297 73.5C331 82 326.5 81 348.5 70.5C370.5 60 382 65 410.5 65C439 65 442.5 76 463 81C483.5 86 479.5 67.4999 515 65C550.5 62.5001 541.5 74.5 564 76C586.5 77.5 601 65 611.5 65C619.9 65 629.667 71.3333 633.5 74.5C638.167 70.1667 649.9 62.2 659.5 65C669.1 67.8 677.5 76.8333 680.5 81C685.833 80.1667 698 79.7 704 84.5C710 89.3 713.833 99.5 715 104C718.333 102 726.9 98.6 734.5 101C742.1 103.4 747.333 113.333 749 118C752.167 115.667 760 111.7 766 114.5C773.5 118 779.5 122 781 125.5C782.2 128.3 784.167 128.667 785 128.5M64.7894 166.721L74.5 166.21M74.5 166.21C77.3333 163.14 84.4 157.2 90 158C97 159 94.5 147 100.5 144.5C106.5 142 113 140.5 118.5 144.5C124 148.5 125.5 131.5 136.5 130.5C147.5 129.5 157.5 129.5 161.5 134.5C165.5 139.5 170 127 175.5 126C183.167 118.667 202.2 104 217 104C235.5 104 269 111 297 111C325 111 302.5 104 359.5 104C416.5 104 425 110.5 447.5 118C470 125.5 460 120 515 114.5C570 109 587 111 601 114.5C612.2 117.3 627.333 120 633.5 121C636.3 122.2 642.333 130.833 645 135C649.167 132.833 659.6 128.8 668 130C678.5 131.5 687.5 142 689 144C690.5 146 694.5 152 695.5 150.5C696.5 149 701.5 146 707 145C711.4 144.2 715.5 147 717 148.5C717.667 146.833 720.4 142.4 726 138C733 132.5 743 132.5 752.5 135.5C760.1 137.9 764 147.5 765 152C767 151.5 771.7 150.8 774.5 152C777.3 153.2 780 158.167 781 160.5H785M785 128.5V160.5" stroke="#EC8305"/>
<g filter="url(#filter1_d_165_18)">
<ellipse cx="405.5" cy="195" rx="301.5" ry="29" fill="#DBD3D3"/>
</g>
</g>
<defs>
<filter id="filter0_d_165_18" x="0.974854" y="0.522705" width="804.525" height="315.877" filterUnits="userSpaceOnUse" color-interpolation-filters="sRGB">
<feFlood flood-opacity="0" result="BackgroundImageFix"/>
<feColorMatrix in="SourceAlpha" type="matrix" values="0 0 0 0 0 0 0 0 0 0 0 0 0 0 0 0 0 0 127 0" result="hardAlpha"/>
<feOffset dy="7"/>
<feGaussianBlur stdDeviation="10"/>
<feComposite in2="hardAlpha" operator="out"/>
<feColorMatrix type="matrix" values="0 0 0 0 0 0 0 0 0 0 0 0 0 0 0 0 0 0 0.7 0"/>
<feBlend mode="normal" in2="BackgroundImageFix" result="effect1_dropShadow_165_18"/>
<feBlend mode="normal" in="SourceGraphic" in2="effect1_dropShadow_165_18" result="shape"/>
</filter>
<filter id="filter1_d_165_18" x="100" y="166" width="611" height="66" filterUnits="userSpaceOnUse" color-interpolation-filters="sRGB">
<feFlood flood-opacity="0" result="BackgroundImageFix"/>
<feColorMatrix in="SourceAlpha" type="matrix" values="0 0 0 0 0 0 0 0 0 0 0 0 0 0 0 0 0 0 127 0" result="hardAlpha"/>
<feOffset dy="4"/>
<feGaussianBlur stdDeviation="2"/>
<feComposite in2="hardAlpha" operator="out"/>
<feColorMatrix type="matrix" values="0 0 0 0 0 0 0 0 0 0 0 0 0 0 0 0 0 0 0.25 0"/>
<feBlend mode="normal" in2="BackgroundImageFix" result="effect1_dropShadow_165_18"/>
<feBlend mode="normal" in="SourceGraphic" in2="effect1_dropShadow_165_18" result="shape"/>
</filter>
</defs>
</svg>
