<svg width="304" height="568" viewBox="0 0 304 568" fill="none" xmlns="http://www.w3.org/2000/svg">
<rect width="152" height="568" fill="url(#paint0_linear_129_86)"/>
<rect x="152" width="152" height="568" fill="url(#paint1_linear_129_86)"/>
<g filter="url(#filter0_d_129_86)">
<path d="M274.502 238.084C271.113 219.744 268.636 212.961 261.988 205.425C260.076 206.848 255.966 212.76 254.819 225.02C254.363 229.891 254.157 236.057 254.127 242.606C254.061 256.659 254.801 272.474 255.601 281.043C256.539 291.092 257.296 295.613 257.556 296.618C258.464 296.523 259.379 296.372 260.294 296.173C260.598 296.107 260.902 296.035 261.206 295.959C268.109 294.223 274.921 289.928 279.065 286.739C279.989 286.028 280.781 285.372 281.411 284.811C280.238 275.348 277.214 252.755 274.502 238.084Z" fill="#38498D"/>
<path fill-rule="evenodd" clip-rule="evenodd" d="M261.988 205.425C255.34 197.888 246.085 194.622 245.564 191.608C244.625 200.652 238.742 214.469 235.917 220.247C234.792 217.676 233.084 213.895 231.532 210.7C231.653 210.952 231.631 216.077 230.573 234.566C229.96 245.283 229.325 277.222 228.817 309.682H251.169C251.663 290.505 252.948 250.243 254.127 242.606C254.157 236.057 254.363 229.891 254.819 225.02C255.966 212.76 260.076 206.848 261.988 205.425ZM248.823 265.467H235.917V275.767H248.823V265.467Z" fill="#F9E6BC"/>
<path d="M220.927 215.976C220.796 215.557 220.431 213.363 220.014 207.937C219.634 202.988 220.225 198.306 220.927 195.161C216.495 199.336 207.292 208.439 205.936 211.454C205.588 213.883 204.815 219.845 204.502 224.266C204.255 227.763 203.59 257.805 203.366 287.229C203.307 294.917 203.279 302.563 203.296 309.682H222.664C223.398 270.113 224.364 232.358 224.446 224.266C224.551 214.017 225.967 208.069 226.662 206.376C225.037 208.844 222.402 213.375 220.927 215.976Z" fill="#F9E6BC"/>
<path d="M228.817 309.682C228.718 315.993 228.624 322.325 228.536 328.524H251.169V309.682H228.817Z" fill="#2FA4B8"/>
<path d="M227.966 204.671C227.763 204.783 227.287 205.427 226.662 206.376C225.967 208.069 224.551 214.017 224.446 224.266C224.364 232.358 223.398 270.113 222.664 309.682C222.548 315.954 222.437 322.271 222.337 328.524C222.069 345.28 221.874 361.568 221.839 375.251L227.966 373.241C228.098 361.388 228.295 345.449 228.536 328.524C228.624 322.325 228.718 315.993 228.817 309.682C229.325 277.222 229.96 245.283 230.573 234.566C231.631 216.077 231.653 210.952 231.532 210.7C229.848 207.236 228.346 204.462 227.966 204.671Z" fill="#2FA4B8"/>
<path d="M222.664 309.682H203.296C203.308 314.883 203.345 319.803 203.412 324.253C203.434 325.731 203.459 327.156 203.489 328.524H222.337C222.437 322.271 222.548 315.954 222.664 309.682Z" fill="#2FA4B8"/>
<path d="M235.917 265.467H248.823V275.767H235.917V265.467Z" fill="#2FA4B8"/>
<path d="M245.564 191.608C245.147 189.196 243.217 183.736 242.305 181.307C241.001 187.588 228.878 203.415 227.966 202.159C227.236 201.154 225.663 196.381 224.968 194.12V188.167C224.186 188.728 222.439 190.351 221.709 192.361C221.462 193.04 221.187 193.995 220.927 195.161C220.225 198.306 219.634 202.988 220.014 207.937C220.431 213.363 220.796 215.557 220.927 215.976C222.402 213.375 225.037 208.844 226.662 206.376C227.287 205.427 227.763 204.783 227.966 204.671C228.346 204.462 229.848 207.236 231.532 210.7C233.084 213.895 234.792 217.676 235.917 220.247C238.742 214.469 244.625 200.652 245.564 191.608Z" fill="#38498D"/>
<path d="M205.936 211.454C204.241 215.222 202.807 215.474 202.025 218.488C201.4 220.9 191.597 255.167 186.774 271.999L190.954 275.767L202.938 286.569L203.366 287.229C203.59 257.805 204.255 227.763 204.502 224.266C204.815 219.845 205.588 213.883 205.936 211.454Z" fill="#38498D"/>
<path d="M262.379 317.219C262.588 329.076 262.988 365.956 263.161 370.226L280.368 368.97C280.758 356.392 279.813 303.969 279.191 289.584C277.758 291.091 274.085 294.609 270.852 296.618C267.62 298.628 263.381 300.135 261.667 300.638C261.95 304.331 262.251 309.898 262.379 317.219Z" fill="url(#paint2_linear_129_86)"/>
<path d="M202.938 286.569L190.954 275.767L181.169 317.219C180.691 320.652 177.832 328.524 170.219 332.543C162.606 336.563 155.967 336.563 147.146 340.834C146.234 341.838 143.861 343.848 141.671 343.848C139.481 343.848 133.807 344.686 131.243 345.104L128.766 346.863C127.897 347.952 125.951 350.631 125.116 352.641C124.282 354.651 122.77 357.833 122.118 359.173L120.032 365.956C120.076 366.877 120.319 368.87 120.945 369.473C121.727 370.227 123.943 371.231 124.725 369.975C125.351 368.97 127.854 362.355 129.027 359.173C129.592 358.67 130.93 358.017 131.764 359.424C132.367 360.44 134.102 363.135 135.736 365.956C135.936 366.303 141.411 366.458 143.105 365.453C144.461 364.649 146.016 361.266 146.755 359.424C146.451 360.848 144.617 365.453 143.887 366.458C143.157 367.463 140.249 369.389 138.365 370.98C138.479 371.242 138.582 371.494 138.673 371.734C139.846 374.817 140.932 378.236 141.217 381.029C141.675 380.778 146.625 374.749 148.58 372.488C150.144 370.679 152.969 370.729 154.185 370.98C165.917 370.31 176.163 371.583 184.819 364.951C193.474 358.319 200.82 335.055 203.412 324.253C203.345 319.803 203.308 314.883 203.296 309.682C203.279 302.563 203.307 294.917 203.366 287.229L202.938 286.569Z" fill="#F1813F"/>
<path fill-rule="evenodd" clip-rule="evenodd" d="M242.305 181.307C242.392 175.278 242.774 162.466 243.608 159.451C244.651 155.683 245.042 161.461 247.389 160.456C249.735 159.451 251.951 155.934 252.733 152.417C253.515 148.9 254.167 143.624 253.646 140.358C253.124 137.092 251.951 135.334 250.778 134.831C250.265 134.612 249.827 134.392 249.344 134.298C248.722 134.178 248.025 134.266 246.998 134.831C245.538 135.635 244.13 139.353 243.608 141.112C243.304 139.018 242.487 134.228 241.653 131.817C240.819 129.405 240.263 122.605 240.089 119.507C238.351 118.837 234.171 116.995 231.355 114.985C227.835 112.473 225.75 110.714 221.839 112.221C217.929 113.729 216.755 114.231 216.104 117.246C215.582 119.657 215.104 124.28 214.93 126.29L214.865 127.295L214.539 132.319C213.67 144.127 213.549 169.751 220.014 177.79C221.744 179.941 223.413 181.349 224.968 182.215C229.225 184.587 232.628 182.902 234.092 181.307L238.264 176.032C236.482 180.135 232.215 188.744 229.4 190.351C226.584 191.959 225.272 193.534 224.968 194.12C225.663 196.381 227.236 201.154 227.966 202.159C228.878 203.415 241.001 187.588 242.305 181.307ZM231.355 158.697C227.601 165.933 222.925 162.717 221.057 160.205C221.622 161.88 223.403 165.279 226.011 165.48C228.618 165.681 230.66 161.042 231.355 158.697ZM234.614 123.526C233.78 122.923 230.703 123.275 229.269 123.526V125.787C229.269 126.189 229.443 126.625 229.53 126.792C230.486 126.876 232.737 126.993 234.092 126.792C235.448 126.591 237.438 128.216 238.264 129.053C237.395 127.462 235.448 124.129 234.614 123.526ZM218.059 124.28C217.12 124.28 215.756 125.955 215.191 126.792C216.625 126.29 217.668 126.792 218.711 127.043C219.545 127.244 220.623 127.797 221.057 128.048L221.187 126.792L220.666 125.787C220.405 125.285 219.232 124.28 218.059 124.28ZM232.789 133.073C231.225 133.073 230.834 136.422 230.834 138.097C230.877 139.605 231.329 142.619 232.789 142.619C234.614 142.619 234.875 138.851 234.875 137.846C234.875 136.841 234.744 133.073 232.789 133.073ZM218.971 133.324C217.303 133.324 216.973 136.841 217.016 138.6C217.103 140.107 217.616 143.172 218.971 143.373C220.666 143.624 221.187 138.851 221.187 138.6C221.187 138.349 221.057 133.324 218.971 133.324Z" fill="#F1813F"/>
<path fill-rule="evenodd" clip-rule="evenodd" d="M230.834 138.097C230.834 136.422 231.225 133.073 232.789 133.073C234.744 133.073 234.875 136.841 234.875 137.846C234.875 138.851 234.614 142.619 232.789 142.619C231.329 142.619 230.877 139.605 230.834 138.097ZM232.007 134.329C231.381 134.329 231.051 136.674 230.964 137.846C231.094 139.102 231.355 141.363 232.007 141.363C232.659 141.363 233.18 138.851 233.18 137.846C233.18 136.841 232.789 134.329 232.007 134.329Z" fill="white"/>
<path fill-rule="evenodd" clip-rule="evenodd" d="M217.016 138.6C216.973 136.841 217.303 133.324 218.971 133.324C221.057 133.324 221.187 138.349 221.187 138.6C221.187 138.851 220.666 143.624 218.971 143.373C217.616 143.172 217.103 140.107 217.016 138.6ZM218.58 134.672C217.538 134.672 217.19 137.184 217.146 138.44C217.277 139.605 217.668 141.706 218.58 141.706C219.31 141.706 219.754 139.605 219.754 138.44C219.754 137.184 219.623 134.672 218.58 134.672Z" fill="white"/>
<path d="M230.964 137.846C231.051 136.674 231.381 134.329 232.007 134.329C232.789 134.329 233.18 136.841 233.18 137.846C233.18 138.851 232.659 141.363 232.007 141.363C231.355 141.363 231.094 139.102 230.964 137.846Z" fill="black"/>
<path d="M217.146 138.44C217.19 137.184 217.538 134.672 218.58 134.672C219.623 134.672 219.754 137.184 219.754 138.44C219.754 139.605 219.31 141.706 218.58 141.706C217.668 141.706 217.277 139.605 217.146 138.44Z" fill="black"/>
<path d="M221.057 160.205C222.925 162.717 227.601 165.933 231.355 158.697C230.66 161.042 228.618 165.681 226.011 165.48C223.403 165.279 221.622 161.88 221.057 160.205Z" fill="#912E13"/>
<path d="M238.264 176.032L234.092 181.307C232.628 182.902 229.225 184.587 224.968 182.215V188.167V194.12C225.272 193.534 226.584 191.959 229.4 190.351C232.215 188.744 236.482 180.135 238.264 176.032Z" fill="#C45E4F"/>
<path d="M279.065 286.739C274.921 289.928 268.109 294.223 261.206 295.959C261.323 296.78 261.491 298.349 261.667 300.638C263.381 300.135 267.62 298.628 270.852 296.618C274.085 294.609 277.758 291.091 279.191 289.584C279.147 288.57 279.105 287.618 279.065 286.739Z" fill="#C45E4F"/>
<path d="M228.536 328.524C228.295 345.449 228.098 361.388 227.966 373.241L250.517 370.226C250.413 366.81 250.908 341.001 251.169 328.524H228.536Z" fill="url(#paint3_linear_129_86)"/>
<path d="M203.59 332.543C204.32 357.263 203.894 371.315 203.59 375.251H221.839C221.874 361.568 222.069 345.28 222.337 328.524H203.489C203.518 329.928 203.552 331.27 203.59 332.543Z" fill="url(#paint4_linear_129_86)"/>
<path d="M243.608 141.112C244.13 139.353 245.538 135.635 246.998 134.831C248.025 134.266 248.722 134.178 249.344 134.298C249.865 131.058 249.909 127.944 249.865 126.792C247.89 124.449 244.007 119.941 242.435 118.443C242.21 118.228 242.032 118.075 241.914 117.999C240.741 117.246 239.437 113.729 239.046 112.724C238.655 111.719 237.612 109.207 235.657 106.694C233.701 104.182 230.964 102.172 226.793 100.916C222.762 99.7025 217.392 100.131 214.8 101.294C214.71 101.335 214.623 101.376 214.539 101.419C212.063 102.675 209.847 105.941 209.325 106.946C208.804 107.951 207.761 110.965 207.631 112.473C207.5 113.98 207.891 116.743 208.804 118.251C209.534 119.456 212.236 119.758 213.496 119.758C213.288 122.572 214.322 125.955 214.865 127.295L214.93 126.29C215.104 124.28 215.582 119.657 216.104 117.246C216.755 114.231 217.929 113.729 221.839 112.221C225.75 110.714 227.835 112.473 231.355 114.985C234.171 116.995 238.351 118.837 240.089 119.507C240.263 122.605 240.819 129.405 241.653 131.817C242.487 134.228 243.304 139.018 243.608 141.112Z" fill="#232856"/>
<path d="M226.793 100.916C230.964 102.172 233.701 104.182 235.657 106.694C237.612 109.207 238.655 111.719 239.046 112.724C239.437 113.729 240.741 117.246 241.914 117.999C242.032 118.075 242.21 118.228 242.435 118.443C242.783 115.281 243.478 107.699 243.478 102.675C243.478 97.6505 242.261 91.4014 241.653 88.905C237.6 85.1533 233.154 84.5869 232.137 84.5869C230.964 84.5869 226.532 85.0894 223.143 87.6016C219.753 90.1138 216.755 96.8968 215.843 98.6554C215.113 100.062 214.843 101.001 214.8 101.294C217.392 100.131 222.762 99.7025 226.793 100.916Z" fill="#FDEECC"/>
<path d="M249.865 126.792C250.387 126.625 251.43 125.888 251.43 124.28C251.43 122.27 252.081 113.98 250.778 108.453C249.474 102.926 247.91 96.3944 243.478 90.8675C242.888 90.1319 242.275 89.4809 241.653 88.905C242.261 91.4014 243.478 97.6505 243.478 102.675C243.478 107.699 242.783 115.281 242.435 118.443C244.007 119.941 247.89 124.449 249.865 126.792Z" fill="#D3D2C6"/>
<path d="M257.556 296.618C257.296 295.613 256.539 291.092 255.601 281.043C254.801 272.474 254.061 256.659 254.127 242.606C252.948 250.243 251.663 290.505 251.169 309.682H260.294V296.173C259.379 296.372 258.464 296.523 257.556 296.618Z" fill="#C4CAAF"/>
<path d="M260.294 370.226V328.524H251.169C250.908 341.001 250.413 366.81 250.517 370.226H260.294Z" fill="url(#paint5_linear_129_86)"/>
<path d="M260.294 328.524V309.682H251.169V328.524H260.294Z" fill="#1A9CB2"/>
<path d="M229.269 123.526C230.703 123.275 233.78 122.923 234.614 123.526C235.448 124.129 237.395 127.462 238.264 129.053C237.438 128.216 235.448 126.591 234.092 126.792C232.737 126.993 230.486 126.876 229.53 126.792C229.443 126.625 229.269 126.189 229.269 125.787V123.526Z" fill="black"/>
<path d="M215.191 126.792C215.756 125.955 217.12 124.28 218.059 124.28C219.232 124.28 220.405 125.285 220.666 125.787L221.187 126.792L221.057 128.048C220.623 127.797 219.545 127.244 218.711 127.043C217.668 126.792 216.625 126.29 215.191 126.792Z" fill="black"/>
<path d="M143.105 365.453C141.411 366.458 135.936 366.303 135.736 365.956C136.749 367.705 137.723 369.504 138.365 370.98C140.249 369.389 143.157 367.463 143.887 366.458C144.617 365.453 146.451 360.848 146.755 359.424C146.016 361.266 144.461 364.649 143.105 365.453Z" fill="#C45E4F"/>
<path d="M115.861 391.329C115.861 392.083 116.774 394.093 117.295 394.846C117.729 395.473 118.974 395.926 119.381 396.205C120.38 395.334 122.431 393.49 122.64 393.088C122.848 392.686 123.074 389.571 123.161 388.063C123.031 387.645 122.692 386.656 122.379 386.054C121.988 385.3 121.075 385.049 120.293 385.049C119.511 385.049 119.381 385.049 119.12 385.802C118.859 386.556 118.599 386.556 117.686 386.305C116.956 386.104 116.165 386.556 115.861 386.807C115.427 386.221 114.427 384.848 113.906 384.044C113.384 383.24 111.603 382.871 110.777 382.788C110.69 383.793 110.569 386.054 110.777 387.058C111.038 388.315 112.602 390.827 112.993 391.078C113.384 391.329 114.949 390.827 115.209 390.576C115.418 390.375 115.905 388.65 116.122 387.812C116.035 388.733 115.861 390.726 115.861 391.329Z" fill="#C45E4F"/>
<path d="M121.857 399.368C122.275 399.569 123.248 399.452 123.682 399.368L127.723 393.59C127.81 393.088 127.958 391.832 127.854 390.827C127.75 389.822 127.115 388.398 126.811 387.812C126.55 387.31 125.82 386.305 124.986 386.305C123.943 386.305 124.074 387.058 123.682 387.561C123.37 387.963 123.204 388.063 123.161 388.063C123.074 389.571 122.848 392.686 122.64 393.088C122.431 393.49 120.38 395.334 119.381 396.205C119.463 396.262 119.511 396.311 119.511 396.354C119.511 396.605 121.336 399.117 121.857 399.368Z" fill="#C45E4F"/>
<path d="M128.636 398.363C128.844 397.76 128.897 396.437 128.897 395.851C128.792 395.047 128.071 394.009 127.723 393.59L123.682 399.368C123.769 399.62 124.047 400.273 124.465 400.876C124.882 401.479 126.116 401.629 126.681 401.629C127.245 400.792 128.427 398.966 128.636 398.363Z" fill="#C45E4F"/>
<path fill-rule="evenodd" clip-rule="evenodd" d="M28.3582 224.769C25.2445 238.082 25.8986 303.987 49.084 333.139C50.7472 335.23 52.5263 337.132 54.4284 338.813L100.312 370.985C101.224 371.404 103.388 372.744 104.744 374.753C106.438 377.265 108.133 380.28 109.176 381.536C110.01 382.54 110.566 382.959 110.74 383.043C111.435 383.127 112.956 383.445 113.477 384.048C113.999 384.65 115.172 386.308 115.693 387.062C116.084 386.811 117.049 386.359 117.779 386.56C118.509 386.76 118.691 386.643 118.691 386.56C118.909 386.057 119.421 385.052 119.734 385.052C120.125 385.052 121.559 385.555 121.69 385.555C121.82 385.555 122.863 387.313 122.993 388.067C123.123 388.82 123.645 387.062 124.036 386.811C124.427 386.56 125.209 386.56 125.6 386.811C125.913 387.012 126.513 387.899 126.773 388.318C127.034 388.82 127.581 390.076 127.686 391.081C127.79 392.086 127.642 393.342 127.555 393.844C127.729 394.012 128.155 394.548 128.468 395.351C128.859 396.356 129.641 396.356 129.902 396.356C130.162 396.356 132.118 394.598 132.509 393.844C132.822 393.241 132.9 392.756 132.9 392.588H133.03C134.803 392.588 136.376 389.741 136.941 388.318H139.417C139.982 387.481 141.112 385.203 141.112 382.792C141.112 379.777 140.069 376.009 139.417 374C138.766 371.99 135.246 365.459 134.725 364.705C134.203 363.952 131.857 360.184 131.205 359.179C130.684 358.375 129.424 358.844 128.859 359.179C127.686 362.193 125.209 368.574 124.688 369.981C124.036 371.739 121.69 370.232 121.038 369.981C120.516 369.78 120.038 367.385 119.865 366.213L121.69 360.184C122.602 358.091 124.609 353.502 125.339 351.894C126.069 350.287 127.99 347.875 128.859 346.87C126.121 345.196 120.49 341.897 119.865 342.098C119.082 342.349 114.129 343.856 111.913 343.856C110.14 343.856 108.481 343.341 107.872 343.083C106.45 342.054 104.967 341 103.439 339.918C102.886 339.527 102.328 339.132 101.763 338.733C90.9464 331.088 78.1518 322.045 67.8682 310.576C67.1418 309.766 66.4279 308.944 65.7282 308.109C56.6866 297.324 50.0009 284.458 49.084 268.729H51.0393C53.907 268.729 64.1005 248.181 70.4616 233.31C77.7526 216.265 78.9061 210.203 80.0335 204.278C80.1356 203.742 80.2375 203.206 80.3437 202.664C81.3669 197.439 80.77 190.941 80.3437 188.346C79.7787 186.882 79.5175 184.916 79.4261 183.071C79.3057 183.657 78.8041 185.08 77.7612 186.085C76.4577 187.341 71.7651 183.824 68.767 180.81C66.3686 178.398 63.2488 169.087 61.9888 164.733C63.944 168.417 68.6367 176.087 71.7651 177.293C74.8935 178.499 78.1957 179.135 79.4558 179.303C80.2379 179.303 81.02 180.307 85.1913 171.264C89.7559 161.368 89.4494 144.048 88.7107 136.599C88.4958 130.673 87.9423 122.789 86.9483 115.75C86.2728 110.966 85.843 110.726 85.5823 107.209C81.8021 105.451 78.9763 99.0616 78.413 100.176C73.4597 109.972 64.8565 100.176 64.8565 105.451C64.8565 114.083 61.8584 113.238 61.4674 117.257C61.1545 120.472 60.6418 128.142 60.4245 131.575C59.9031 133.92 58.73 138.207 58.2086 136.599C57.5568 134.59 55.4712 131.575 53.1249 131.073C51.2478 130.671 49.6488 133.585 49.084 135.092C48.5626 136.18 47.5719 139.513 47.7805 144.135C48.0412 149.913 50.6482 154.685 51.691 156.444C52.7338 158.202 55.7319 158.704 56.9051 158.704C57.8436 158.704 58.5996 159.709 58.8603 160.212C58.8169 161.719 58.756 166.642 58.8603 174.279C58.9907 183.824 57.4265 186.336 54.4284 190.355C51.4303 194.374 44.3914 197.891 40.4808 200.906L40.4013 200.967C36.5155 203.961 32.5011 207.055 28.3582 224.769ZM82.9753 155.439C79.0126 160.262 74.7197 157.448 73.0686 155.439C73.8073 157.03 75.8321 160.212 78.0219 160.212C80.2118 160.212 82.2366 157.03 82.9753 155.439ZM69.6795 116.503C68.011 117.106 66.551 121.109 66.0296 123.035C66.7249 122.448 68.4281 121.025 69.6795 120.02C70.9308 119.015 72.8948 119.601 73.7204 120.02C74.068 119.099 74.6328 117.106 74.1114 116.503C73.4597 115.75 71.7651 115.75 69.6795 116.503ZM84.5395 114.494C83.4967 113.489 81.498 115.917 80.629 117.257C80.8375 119.066 81.498 119.518 81.8021 119.518C81.9759 119.099 82.506 118.161 83.236 117.759C83.966 117.358 85.7127 117.257 86.4948 117.257C86.2775 116.755 85.5823 115.499 84.5395 114.494ZM66.8118 206.683C62.432 208.492 57.6872 204.757 55.8622 202.664C56.8182 204.339 59.121 207.889 60.6853 208.693C62.6405 209.697 66.0296 207.437 66.8118 206.683ZM70.7223 127.305C69.9923 127.305 69.4622 128.98 69.2884 129.817C69.245 130.822 69.1841 132.831 69.2884 132.831C69.4188 132.831 70.2009 135.343 71.2437 134.338C72.0779 133.535 72.0258 130.654 71.8954 129.315C71.8085 128.645 71.4523 127.305 70.7223 127.305ZM83.236 126.551C82.1932 126.551 81.8456 128.059 81.8021 128.812V131.073C82.1063 131.826 82.871 133.233 83.4967 132.831C84.1224 132.429 84.2788 130.654 84.2788 129.817C84.3657 128.728 84.2788 126.551 83.236 126.551Z" fill="#FA953D"/>
<path d="M49.084 135.092C49.6488 133.585 51.2478 130.671 53.1249 131.073C55.4712 131.575 57.5568 134.59 58.2086 136.599C58.73 138.207 59.9031 133.92 60.4245 131.575C60.6418 128.142 61.1545 120.472 61.4674 117.257C61.8584 113.238 64.8565 114.083 64.8565 105.451C64.8565 100.176 73.4597 109.972 78.413 100.176C78.9763 99.0616 81.8021 105.451 85.5823 107.209C85.843 110.726 86.2728 110.966 86.9483 115.75C88.354 112.334 89.3173 107.46 89.6232 105.451C89.8839 95.4028 87.0162 85.6062 85.1913 82.0895C83.3663 78.5727 79.4261 75.5583 75.806 78.5727C72.9099 80.9842 69.3852 80.5823 67.9849 80.0799C66.2469 79.41 61.9887 78.4722 58.8603 80.0799C55.7319 81.6876 53.7332 90.4627 53.1249 94.6493C52.1255 95.5704 49.9182 97.9651 49.084 100.176C48.0412 102.939 46.0859 108.716 46.0859 117.257C46.0859 124.09 48.0846 131.994 49.084 135.092Z" fill="#35244D"/>
<path d="M124.427 274.777C126.2 256.876 128.077 239.339 128.077 233.31C128.207 231.726 128.807 227.753 130.162 224.538C131.857 220.519 134.855 209.215 135.376 205.949C135.898 202.684 139.548 182.085 139.548 180.829C139.548 179.573 139.678 176.057 138.635 175.052C137.723 175.052 136.289 179.825 134.985 184.849C133.682 189.873 132.9 196.906 131.466 195.65C131.025 195.264 129.93 194.471 128.598 193.541C127.507 192.779 126.258 191.925 125.079 191.128C125.079 190.04 125.209 187.361 125.73 185.351C126.344 182.984 130.169 169.247 131.509 166.614C130.979 167.111 130.593 164.782 129.902 165.004C129.12 165.255 128.207 166.26 127.034 168.521C126.095 170.329 120.821 188.198 118.3 196.906V184.849C117.779 182.755 116.163 179.825 113.868 184.849C113.521 188.282 112.826 196.906 112.826 203.94C112.826 212.731 114.911 219.011 115.433 221.775C115.85 223.985 113.868 242.443 112.826 251.396C110.653 262.874 106.152 287.035 105.526 291.858C104.744 297.887 105.787 310.698 106.83 313.712C107.872 316.727 109.176 320.746 111.001 320.746C112.818 320.746 118.373 319.75 118.928 316.766C118.93 316.753 118.933 316.74 118.935 316.727C120.738 306.538 122.95 289.689 124.427 274.777Z" fill="#FA953D"/>
<path d="M135.637 167.767C135.811 166.679 136.002 164.451 135.376 164.25C134.594 163.999 132.378 164.753 131.727 166.26C131.651 166.435 131.579 166.549 131.509 166.614C130.169 169.247 126.344 182.984 125.73 185.351C125.209 187.361 125.079 190.04 125.079 191.128C126.258 191.925 127.507 192.779 128.598 193.541C129.076 190.56 130.371 183.492 131.727 179.071C133.082 174.65 134.898 169.693 135.637 167.767Z" fill="#FA953D"/>
<path d="M138.635 175.052C137.592 174.047 138.896 170.53 137.853 168.521C137.019 166.913 136.028 167.349 135.637 167.767C134.898 169.693 133.082 174.65 131.727 179.071C130.371 183.492 129.076 190.56 128.598 193.541C129.93 194.471 131.025 195.264 131.466 195.65C132.9 196.906 133.682 189.873 134.985 184.849C136.289 179.825 137.723 175.052 138.635 175.052Z" fill="#FA953D"/>
<path d="M71.7651 177.293C68.6367 176.087 63.944 168.417 61.9888 164.733C63.2488 169.087 66.3686 178.398 68.767 180.81C71.7651 183.824 76.4577 187.341 77.7612 186.085C78.8041 185.08 79.3057 183.657 79.4261 183.071C79.3557 181.648 79.386 180.298 79.4558 179.303C78.1957 179.135 74.8935 178.499 71.7651 177.293Z" fill="#C45E4F"/>
<path d="M112.826 251.396C110.349 263.202 104.822 288.171 102.528 293.597C102.174 294.434 102.154 299.709 102.295 306.659C102.981 311.013 105.057 320.174 107.872 321.982C110.688 323.791 115.085 322.002 117.258 321.248C117.905 320.25 118.565 318.788 118.928 316.766C118.373 319.75 112.818 320.746 111.001 320.746C109.176 320.746 107.872 316.727 106.83 313.712C105.787 310.698 104.744 297.887 105.526 291.858C106.152 287.035 110.653 262.874 112.826 251.396Z" fill="#C45E4F"/>
<path d="M55.8622 202.664C57.6872 204.757 62.432 208.492 66.8118 206.683C66.0296 207.437 62.6405 209.697 60.6853 208.693C59.121 207.889 56.8182 204.339 55.8622 202.664Z" fill="#C45E4F"/>
<path d="M73.0686 155.439C74.7197 157.448 79.0126 160.262 82.9753 155.439C82.2366 157.03 80.2118 160.212 78.0219 160.212C75.8321 160.212 73.8073 157.03 73.0686 155.439Z" fill="#C45E4F"/>
<path d="M81.8021 128.812C81.8456 128.059 82.1932 126.551 83.236 126.551C84.2788 126.551 84.3657 128.728 84.2788 129.817C84.2788 130.654 84.1224 132.429 83.4967 132.831C82.871 133.233 82.1063 131.826 81.8021 131.073V128.812Z" fill="black"/>
<path d="M69.2884 129.817C69.4622 128.98 69.9923 127.305 70.7223 127.305C71.4523 127.305 71.8085 128.645 71.8954 129.315C72.0258 130.654 72.0779 133.535 71.2437 134.338C70.2009 135.343 69.4188 132.831 69.2884 132.831C69.1841 132.831 69.245 130.822 69.2884 129.817Z" fill="black"/>
<path d="M66.0296 123.035C66.551 121.109 68.011 117.106 69.6795 116.503C71.7651 115.75 73.4597 115.75 74.1114 116.503C74.6328 117.106 74.068 119.099 73.7204 120.02C72.8948 119.601 70.9308 119.015 69.6795 120.02C68.4281 121.025 66.7249 122.448 66.0296 123.035Z" fill="black"/>
<path d="M80.629 117.257C81.498 115.917 83.4967 113.489 84.5395 114.494C85.5823 115.499 86.2775 116.755 86.4948 117.257C85.7127 117.257 83.966 117.358 83.236 117.759C82.506 118.161 81.9759 119.099 81.8021 119.518C81.498 119.518 80.8375 119.066 80.629 117.257Z" fill="black"/>
<path d="M100.312 370.985L54.4284 338.813C52.5263 337.132 50.7472 335.23 49.084 333.139V379.526C70.8205 379.526 83.0073 379.526 104.744 379.526V374.753C103.388 372.744 101.224 371.404 100.312 370.985Z" fill="url(#paint6_linear_129_86)"/>
<path d="M91.0571 204.422C90.6062 218.322 87.8323 252.351 80.3437 277.269C82.3941 271.659 87.1465 256.269 89.7535 239.59C92.3606 222.91 91.7088 209.195 91.0571 204.422Z" fill="#DCCBAD"/>
<path d="M65.7282 308.109C66.4279 308.944 67.1418 309.766 67.8682 310.576C69.9231 306.671 70.4289 304.929 73.0514 295.899C73.2603 295.18 73.4827 294.414 73.7204 293.597C70.7056 301.974 69.1285 303.872 67.4223 305.924C66.8865 306.568 66.3379 307.228 65.7282 308.109Z" fill="#DCCBAD"/>
<path fill-rule="evenodd" clip-rule="evenodd" d="M81.8021 190.355C84.8002 192.114 96.9228 199.901 100.312 209.195C103.023 216.63 109.784 240.427 112.826 251.396C110.349 263.202 104.822 288.171 102.528 293.597C102.174 294.434 102.154 299.709 102.295 306.659C102.506 317.085 103.081 331.28 103.439 339.918C102.886 339.527 102.328 339.132 101.763 338.733C90.9464 331.088 78.1518 322.045 67.8682 310.576C69.9231 306.671 70.4289 304.929 73.0514 295.899C73.2603 295.18 73.4827 294.414 73.7204 293.597C70.7056 301.974 69.1285 303.872 67.4223 305.924C66.8865 306.568 66.3379 307.228 65.7282 308.109C60.8276 302.263 56.6192 295.807 53.6462 288.614L55.2105 292.103C68.3558 275.775 82.3136 230.379 85.1913 209.195C81.8672 228.872 64.0944 278.064 53.6462 288.614C51.134 282.536 49.5039 275.933 49.084 268.729H51.0393C53.907 268.729 64.1005 248.181 70.4616 233.31C77.7526 216.265 78.9061 210.203 80.0335 204.278C80.1356 203.742 80.2375 203.206 80.3437 202.664C81.3669 197.439 80.77 190.941 80.3437 188.346C80.6988 189.265 81.1738 189.987 81.8021 190.355ZM91.0571 204.422C90.6062 218.322 87.8323 252.351 80.3437 277.269C82.3941 271.659 87.1465 256.269 89.7535 239.59C92.3606 222.91 91.7088 209.195 91.0571 204.422Z" fill="#FFF6E1"/>
<path d="M85.1913 209.195C81.8672 228.872 64.0944 278.064 53.6462 288.614L55.2105 292.103C68.3558 275.775 82.3136 230.379 85.1913 209.195Z" fill="#DCCBAD"/>
</g>
<rect y="188" width="152" height="380" fill="url(#paint7_linear_129_86)"/>
<rect x="150" y="206" width="153" height="362" fill="url(#paint8_linear_129_86)"/>
<defs>
<filter id="filter0_d_129_86" x="27.0223" y="77.3364" width="279.389" height="339.293" filterUnits="userSpaceOnUse" color-interpolation-filters="sRGB">
<feFlood flood-opacity="0" result="BackgroundImageFix"/>
<feColorMatrix in="SourceAlpha" type="matrix" values="0 0 0 0 0 0 0 0 0 0 0 0 0 0 0 0 0 0 127 0" result="hardAlpha"/>
<feOffset dx="21" dy="11"/>
<feGaussianBlur stdDeviation="2"/>
<feComposite in2="hardAlpha" operator="out"/>
<feColorMatrix type="matrix" values="0 0 0 0 0 0 0 0 0 0 0 0 0 0 0 0 0 0 0.25 0"/>
<feBlend mode="normal" in2="BackgroundImageFix" result="effect1_dropShadow_129_86"/>
<feBlend mode="normal" in="SourceGraphic" in2="effect1_dropShadow_129_86" result="shape"/>
</filter>
<linearGradient id="paint0_linear_129_86" x1="76" y1="0" x2="76" y2="568" gradientUnits="userSpaceOnUse">
<stop stop-color="#644365"/>
<stop offset="0.502269" stop-color="#F8982A"/>
</linearGradient>
<linearGradient id="paint1_linear_129_86" x1="228" y1="0" x2="228" y2="568" gradientUnits="userSpaceOnUse">
<stop stop-color="#255073"/>
<stop offset="1" stop-color="#119B9B"/>
</linearGradient>
<linearGradient id="paint2_linear_129_86" x1="196.037" y1="84.5869" x2="196.037" y2="401.629" gradientUnits="userSpaceOnUse">
<stop offset="0.793269" stop-color="#F78841"/>
<stop offset="1" stop-color="#012D79"/>
</linearGradient>
<linearGradient id="paint3_linear_129_86" x1="196.037" y1="84.5869" x2="196.037" y2="401.629" gradientUnits="userSpaceOnUse">
<stop offset="0.783654" stop-color="#F9E6BC"/>
<stop offset="1" stop-color="#012C77"/>
</linearGradient>
<linearGradient id="paint4_linear_129_86" x1="196.037" y1="84.5869" x2="196.037" y2="401.629" gradientUnits="userSpaceOnUse">
<stop offset="0.783654" stop-color="#F9E6BC"/>
<stop offset="1" stop-color="#012C77"/>
</linearGradient>
<linearGradient id="paint5_linear_129_86" x1="196.037" y1="84.5869" x2="196.037" y2="401.629" gradientUnits="userSpaceOnUse">
<stop offset="0.807692" stop-color="#CCCAB9"/>
<stop offset="1" stop-color="#012975"/>
</linearGradient>
<linearGradient id="paint6_linear_129_86" x1="84.0671" y1="77.3364" x2="84.0671" y2="396.356" gradientUnits="userSpaceOnUse">
<stop offset="0.846154" stop-color="#FFF6E1"/>
<stop offset="1" stop-color="#2EAE99"/>
</linearGradient>
<linearGradient id="paint7_linear_129_86" x1="76" y1="188" x2="76" y2="568" gradientUnits="userSpaceOnUse">
<stop stop-color="#E38C32" stop-opacity="0.13"/>
<stop offset="0.466346" stop-color="#EF8C27" stop-opacity="0.36"/>
</linearGradient>
<linearGradient id="paint8_linear_129_86" x1="226.5" y1="206" x2="226.5" y2="568" gradientUnits="userSpaceOnUse">
<stop stop-color="#1D8382" stop-opacity="0.12"/>
<stop offset="0.300889" stop-color="#129B99" stop-opacity="0.5"/>
</linearGradient>
</defs>
</svg>
