<svg width="1920" height="1080" viewBox="0 0 1920 1080" fill="none" xmlns="http://www.w3.org/2000/svg">
<rect width="960" height="1080" fill="url(#paint0_linear_128_83)"/>
<rect x="960" width="960" height="1080" fill="url(#paint1_linear_128_83)"/>
<g filter="url(#filter0_d_128_83)">
<path d="M1733.7 495.504C1712.29 444.508 1696.65 425.647 1654.66 404.689C1642.59 408.648 1616.63 425.088 1609.38 459.178C1606.5 472.723 1605.21 489.869 1605.01 508.078C1604.6 547.155 1609.27 591.134 1614.32 614.959C1620.25 642.902 1625.02 655.476 1626.67 658.271C1632.41 658.006 1638.18 657.585 1643.96 657.032C1645.88 656.848 1647.8 656.649 1649.72 656.436C1693.32 651.61 1736.34 639.667 1762.51 630.8C1768.35 628.822 1773.35 626.997 1777.33 625.438C1769.92 599.125 1750.82 536.3 1733.7 495.504Z" fill="#38498D"/>
<path fill-rule="evenodd" clip-rule="evenodd" d="M1654.66 404.689C1612.68 383.732 1554.22 374.651 1550.93 366.268C1545 391.417 1507.84 429.838 1490 445.905C1482.9 438.756 1472.11 428.242 1462.3 419.359C1463.07 420.058 1462.93 434.309 1456.25 485.724C1452.38 515.523 1448.37 604.334 1445.16 694.596H1586.33C1589.45 641.272 1597.56 529.315 1605.01 508.078C1605.21 489.869 1606.5 472.723 1609.38 459.178C1616.63 425.088 1642.59 408.648 1654.66 404.689ZM1571.51 571.648H1490V600.289H1571.51V571.648Z" fill="#F9E6BC"/>
<path d="M1395.33 434.029C1394.5 432.865 1392.2 426.764 1389.56 411.675C1387.16 397.914 1390.89 384.896 1395.33 376.149C1367.33 387.758 1309.21 413.072 1300.65 421.455C1298.45 428.208 1293.57 444.787 1291.59 457.082C1290.03 466.805 1285.83 550.343 1284.42 632.163C1284.05 653.54 1283.87 674.801 1283.97 694.596H1406.3C1410.93 584.568 1417.04 479.584 1417.56 457.082C1418.21 428.581 1427.16 412.042 1431.55 407.335C1421.29 414.198 1404.64 426.798 1395.33 434.029Z" fill="#F9E6BC"/>
<path d="M1445.16 694.596C1444.54 712.147 1443.94 729.752 1443.38 746.989H1586.33V694.596H1445.16Z" fill="#2FA4B8"/>
<path d="M1439.78 402.594C1438.5 402.904 1435.5 404.695 1431.55 407.335C1427.16 412.042 1418.21 428.581 1417.56 457.082C1417.04 479.584 1410.93 584.568 1406.3 694.596C1405.56 712.037 1404.87 729.604 1404.23 746.989C1402.54 793.584 1401.31 838.875 1401.09 876.923L1439.78 871.335C1440.62 838.374 1441.86 794.055 1443.38 746.989C1443.94 729.752 1444.54 712.147 1445.16 694.596C1448.37 604.334 1452.38 515.523 1456.25 485.724C1462.93 434.309 1463.07 420.058 1462.3 419.359C1451.67 409.726 1442.18 402.012 1439.78 402.594Z" fill="#2FA4B8"/>
<path d="M1406.3 694.596H1283.97C1284.05 709.059 1284.28 722.74 1284.71 735.114C1284.85 739.223 1285.01 743.188 1285.19 746.989H1404.23C1404.87 729.604 1405.56 712.037 1406.3 694.596Z" fill="#2FA4B8"/>
<path d="M1490 571.648H1571.51V600.289H1490V571.648Z" fill="#2FA4B8"/>
<path d="M1550.93 366.268C1548.29 359.562 1536.11 344.38 1530.35 337.627C1522.11 355.091 1445.55 399.101 1439.78 395.608C1435.17 392.814 1425.24 379.541 1420.85 373.254V356.702C1415.91 358.261 1404.88 362.775 1400.27 368.364C1398.71 370.253 1396.97 372.907 1395.33 376.149C1390.89 384.896 1387.16 397.914 1389.56 411.675C1392.2 426.764 1394.5 432.865 1395.33 434.029C1404.64 426.798 1421.29 414.198 1431.55 407.335C1435.5 404.695 1438.5 402.904 1439.78 402.594C1442.18 402.012 1451.67 409.726 1462.3 419.359C1472.11 428.242 1482.9 438.756 1490 445.905C1507.84 429.838 1545 391.417 1550.93 366.268Z" fill="#38498D"/>
<path d="M1300.65 421.455C1289.95 431.934 1280.89 432.632 1275.95 441.015C1272 447.721 1210.09 543.006 1179.62 589.811L1206.03 600.289L1281.71 630.328L1284.42 632.163C1285.83 550.343 1290.03 466.805 1291.59 457.082C1293.57 444.787 1298.45 428.208 1300.65 421.455Z" fill="#38498D"/>
<path d="M1657.13 715.553C1658.45 748.526 1660.97 851.076 1662.07 862.952L1770.75 859.459C1773.21 824.482 1767.24 678.709 1763.31 638.711C1754.26 642.902 1731.06 652.682 1710.65 658.271C1690.23 663.859 1663.46 668.051 1652.63 669.448C1654.42 679.718 1656.32 695.197 1657.13 715.553Z" fill="url(#paint2_linear_128_83)"/>
<path d="M1281.71 630.328L1206.03 600.289L1144.22 715.553C1141.2 725.101 1123.15 746.989 1075.07 758.166C1026.99 769.344 985.054 769.344 929.344 781.219C923.581 784.014 908.597 789.602 894.766 789.602C880.935 789.602 845.094 791.931 828.903 793.095L813.26 797.985C807.772 801.012 795.477 808.464 790.208 814.052C784.939 819.641 775.389 828.489 771.273 832.215L758.1 851.076C758.374 853.638 759.911 859.18 763.863 860.856C768.803 862.952 782.799 865.746 787.738 862.254C791.69 859.459 807.497 841.064 814.907 832.215C818.474 830.818 826.927 829.002 832.196 832.914C836.002 835.74 846.959 843.232 857.277 851.076C858.542 852.042 893.12 852.474 903.823 849.679C912.385 847.444 922.209 838.036 926.875 832.914C924.954 836.872 913.373 849.679 908.762 852.474C904.152 855.268 885.784 860.624 873.883 865.048C874.602 865.777 875.254 866.477 875.83 867.144C883.24 875.717 890.098 885.225 891.896 892.991C894.79 892.292 926.051 875.526 938.401 869.239C948.28 864.21 966.118 864.349 973.802 865.048C1047.9 863.185 1112.61 866.724 1167.28 848.282C1221.94 829.84 1268.34 765.152 1284.71 735.114C1284.28 722.74 1284.05 709.059 1283.97 694.596C1283.87 674.801 1284.05 653.54 1284.42 632.163L1281.71 630.328Z" fill="#F1813F"/>
<path fill-rule="evenodd" clip-rule="evenodd" d="M1530.35 337.627C1530.89 320.861 1533.31 285.234 1538.58 276.851C1545.17 266.372 1547.64 282.44 1562.45 279.645C1577.27 276.851 1591.27 267.071 1596.21 257.291C1601.15 247.511 1605.27 232.841 1601.97 223.76C1598.68 214.678 1591.27 209.788 1583.86 208.391C1580.62 207.78 1577.85 207.17 1574.8 206.909C1570.87 206.573 1566.47 206.818 1559.98 208.391C1550.76 210.626 1541.87 220.965 1538.58 225.855C1536.66 220.034 1531.5 206.715 1526.23 200.008C1520.96 193.302 1517.45 174.394 1516.35 165.778C1505.37 163.915 1478.97 158.793 1461.19 153.204C1438.96 146.218 1425.79 141.328 1401.09 145.52C1376.39 149.711 1368.98 151.108 1364.86 159.491C1361.57 166.197 1358.55 179.051 1357.46 184.64L1357.04 187.434L1354.99 201.405C1349.5 234.238 1348.73 305.492 1389.56 327.847C1400.49 333.827 1411.03 337.741 1420.85 340.15C1447.74 346.746 1469.23 342.061 1478.48 337.627L1504.82 322.957C1493.57 334.367 1466.62 358.304 1448.84 362.775C1431.06 367.246 1422.77 371.624 1420.85 373.254C1425.24 379.541 1435.17 392.814 1439.78 395.608C1445.55 399.101 1522.11 355.091 1530.35 337.627ZM1461.19 274.755C1437.48 294.874 1407.95 285.932 1396.15 278.947C1399.72 283.604 1410.97 293.058 1427.43 293.617C1443.9 294.176 1456.8 281.275 1461.19 274.755ZM1481.77 176.955C1476.5 175.279 1457.07 176.257 1448.02 176.955V183.242C1448.02 184.36 1449.11 185.571 1449.66 186.037C1455.7 186.27 1469.92 186.596 1478.48 186.037C1487.04 185.478 1499.61 189.995 1504.82 192.324C1499.34 187.9 1487.04 178.632 1481.77 176.955ZM1377.21 179.051C1371.29 179.051 1362.67 183.708 1359.1 186.037C1368.16 184.64 1374.74 186.037 1381.33 186.735C1386.6 187.294 1393.41 188.831 1396.15 189.53L1396.97 186.037L1393.68 183.242C1392.03 181.845 1384.62 179.051 1377.21 179.051ZM1470.25 203.501C1460.37 203.501 1457.9 212.815 1457.9 217.473C1458.17 221.664 1461.02 230.047 1470.25 230.047C1481.77 230.047 1483.42 219.568 1483.42 216.774C1483.42 213.98 1482.6 203.501 1470.25 203.501ZM1382.98 204.2C1372.44 204.2 1370.35 213.98 1370.63 218.87C1371.18 223.061 1374.41 231.584 1382.98 232.143C1393.68 232.841 1396.97 219.568 1396.97 218.87C1396.97 218.171 1396.15 204.2 1382.98 204.2Z" fill="#F1813F"/>
<path fill-rule="evenodd" clip-rule="evenodd" d="M1457.9 217.473C1457.9 212.815 1460.37 203.501 1470.25 203.501C1482.6 203.501 1483.42 213.98 1483.42 216.774C1483.42 219.568 1481.77 230.047 1470.25 230.047C1461.02 230.047 1458.17 221.664 1457.9 217.473ZM1465.31 206.994C1461.35 206.994 1459.27 213.514 1458.72 216.774C1459.54 220.267 1461.19 226.554 1465.31 226.554C1469.42 226.554 1472.72 219.568 1472.72 216.774C1472.72 213.98 1470.25 206.994 1465.31 206.994Z" fill="white"/>
<path fill-rule="evenodd" clip-rule="evenodd" d="M1370.63 218.87C1370.35 213.98 1372.44 204.2 1382.98 204.2C1396.15 204.2 1396.97 218.171 1396.97 218.87C1396.97 219.568 1393.68 232.841 1382.98 232.143C1374.41 231.584 1371.18 223.061 1370.63 218.87ZM1380.51 207.947C1373.92 207.947 1371.73 214.933 1371.45 218.426C1372.27 221.664 1374.74 227.507 1380.51 227.507C1385.12 227.507 1387.92 221.664 1387.92 218.426C1387.92 214.933 1387.09 207.947 1380.51 207.947Z" fill="white"/>
<path d="M1458.72 216.774C1459.27 213.514 1461.35 206.994 1465.31 206.994C1470.25 206.994 1472.72 213.98 1472.72 216.774C1472.72 219.568 1469.42 226.554 1465.31 226.554C1461.19 226.554 1459.54 220.267 1458.72 216.774Z" fill="black"/>
<path d="M1371.45 218.426C1371.73 214.933 1373.92 207.947 1380.51 207.947C1387.09 207.947 1387.92 214.933 1387.92 218.426C1387.92 221.664 1385.12 227.507 1380.51 227.507C1374.74 227.507 1372.27 221.664 1371.45 218.426Z" fill="black"/>
<path d="M1396.15 278.947C1407.95 285.932 1437.48 294.874 1461.19 274.755C1456.8 281.275 1443.9 294.176 1427.43 293.617C1410.97 293.058 1399.72 283.604 1396.15 278.947Z" fill="#912E13"/>
<path d="M1504.82 322.957L1478.48 337.627C1469.23 342.061 1447.74 346.746 1420.85 340.15V356.702V373.254C1422.77 371.624 1431.06 367.246 1448.84 362.775C1466.62 358.304 1493.57 334.367 1504.82 322.957Z" fill="#C45E4F"/>
<path d="M1762.51 630.8C1736.34 639.667 1693.32 651.61 1649.72 656.436C1650.46 658.719 1651.52 663.083 1652.63 669.448C1663.46 668.051 1690.23 663.859 1710.65 658.271C1731.06 652.682 1754.26 642.902 1763.31 638.711C1763.03 635.89 1762.77 633.244 1762.51 630.8Z" fill="#C45E4F"/>
<path d="M1443.38 746.989C1441.86 794.055 1440.62 838.374 1439.78 871.335L1582.21 862.952C1581.55 853.452 1584.68 781.685 1586.33 746.989H1443.38Z" fill="url(#paint3_linear_128_83)"/>
<path d="M1285.83 758.166C1290.44 826.906 1287.75 865.979 1285.83 876.923H1401.09C1401.31 838.875 1402.54 793.584 1404.23 746.989H1285.19C1285.38 750.894 1285.59 754.627 1285.83 758.166Z" fill="url(#paint4_linear_128_83)"/>
<path d="M1538.58 225.855C1541.87 220.965 1550.76 210.626 1559.98 208.391C1566.47 206.818 1570.87 206.573 1574.8 206.909C1578.1 197.899 1578.37 189.24 1578.1 186.037C1565.62 179.521 1541.09 166.987 1531.17 162.821C1529.74 162.223 1528.62 161.797 1527.88 161.587C1520.47 159.491 1512.23 149.711 1509.76 146.917C1507.29 144.123 1500.71 137.137 1488.36 130.151C1476.01 123.166 1458.72 117.577 1432.37 114.084C1406.92 110.709 1373 111.9 1356.63 115.135C1356.06 115.248 1355.51 115.363 1354.99 115.481C1339.34 118.974 1325.35 128.055 1322.05 130.85C1318.76 133.644 1312.17 142.027 1311.35 146.218C1310.53 150.41 1313 158.094 1318.76 162.285C1323.37 165.638 1340.44 166.477 1348.4 166.477C1347.08 174.301 1353.61 183.708 1357.04 187.434L1357.46 184.64C1358.55 179.051 1361.57 166.197 1364.86 159.491C1368.98 151.108 1376.39 149.711 1401.09 145.52C1425.79 141.328 1438.96 146.218 1461.19 153.204C1478.97 158.793 1505.37 163.915 1516.35 165.778C1517.45 174.394 1520.96 193.302 1526.23 200.008C1531.5 206.715 1536.66 220.034 1538.58 225.855Z" fill="#232856"/>
<path d="M1432.37 114.084C1458.72 117.577 1476.01 123.166 1488.36 130.151C1500.71 137.137 1507.29 144.123 1509.76 146.917C1512.23 149.711 1520.47 159.491 1527.88 161.587C1528.62 161.797 1529.74 162.223 1531.17 162.821C1533.36 154.027 1537.76 132.946 1537.76 118.974C1537.76 105.003 1530.07 87.6261 1526.23 80.6842C1500.63 70.252 1472.55 68.677 1466.13 68.677C1458.72 68.677 1430.73 70.0741 1409.32 77.0599C1387.92 84.0456 1368.98 102.907 1363.22 107.797C1358.61 111.709 1356.91 114.319 1356.63 115.135C1373 111.9 1406.92 110.709 1432.37 114.084Z" fill="#FDEECC"/>
<path d="M1578.1 186.037C1581.39 185.571 1587.98 183.522 1587.98 179.051C1587.98 173.463 1592.09 150.41 1583.86 135.041C1575.63 119.673 1565.75 101.51 1537.76 86.1413C1534.03 84.096 1530.16 82.2857 1526.23 80.6842C1530.07 87.6261 1537.76 105.003 1537.76 118.974C1537.76 132.946 1533.36 154.027 1531.17 162.821C1541.09 166.987 1565.62 179.521 1578.1 186.037Z" fill="#D3D2C6"/>
<path d="M1626.67 658.271C1625.02 655.476 1620.25 642.902 1614.32 614.959C1609.27 591.134 1604.6 547.155 1605.01 508.078C1597.56 529.315 1589.45 641.272 1586.33 694.596H1643.96V657.032C1638.18 657.585 1632.41 658.006 1626.67 658.271Z" fill="#C4CAAF"/>
<path d="M1643.96 862.952V746.989H1586.33C1584.68 781.685 1581.55 853.452 1582.21 862.952H1643.96Z" fill="url(#paint5_linear_128_83)"/>
<path d="M1643.96 746.989V694.596H1586.33V746.989H1643.96Z" fill="#1A9CB2"/>
<path d="M1448.02 176.955C1457.07 176.257 1476.5 175.279 1481.77 176.955C1487.04 178.632 1499.34 187.9 1504.82 192.324C1499.61 189.995 1487.04 185.478 1478.48 186.037C1469.92 186.596 1455.7 186.27 1449.66 186.037C1449.11 185.571 1448.02 184.36 1448.02 183.242V176.955Z" fill="black"/>
<path d="M1359.1 186.037C1362.67 183.708 1371.29 179.051 1377.21 179.051C1384.62 179.051 1392.03 181.845 1393.68 183.242L1396.97 186.037L1396.15 189.53C1393.41 188.831 1386.6 187.294 1381.33 186.735C1374.74 186.037 1368.16 184.64 1359.1 186.037Z" fill="black"/>
<path d="M903.823 849.679C893.12 852.474 858.542 852.042 857.277 851.076C863.677 855.942 869.831 860.942 873.883 865.048C885.784 860.624 904.152 855.268 908.762 852.474C913.373 849.679 924.954 836.872 926.875 832.914C922.209 838.036 912.385 847.444 903.823 849.679Z" fill="#C45E4F"/>
<path d="M731.755 921.632C731.755 923.728 737.518 929.316 740.811 931.412C743.55 933.155 751.414 934.415 753.984 935.191C760.296 932.767 773.249 927.64 774.566 926.522C775.883 925.404 777.31 916.742 777.859 912.551C777.036 911.386 774.895 908.639 772.919 906.962C770.45 904.866 764.686 904.168 759.747 904.168C754.807 904.168 753.984 904.168 752.337 906.264C750.691 908.359 749.044 908.359 743.281 907.661C738.671 907.102 733.676 908.359 731.755 909.058C729.01 907.428 722.699 903.609 719.406 901.374C716.112 899.138 704.861 898.114 699.646 897.881C699.097 900.675 698.329 906.962 699.646 909.756C701.293 913.249 711.172 920.235 713.642 920.934C716.112 921.632 725.992 920.235 727.638 919.536C728.955 918.978 732.029 914.181 733.401 911.852C732.852 914.414 731.755 919.956 731.755 921.632Z" fill="#C45E4F"/>
<path d="M769.626 943.986C772.26 944.545 778.408 944.219 781.152 943.986L806.674 927.919C807.223 926.522 808.156 923.029 807.498 920.235C806.839 917.441 802.832 913.482 800.911 911.852C799.265 910.455 794.654 907.661 789.385 907.661C782.799 907.661 783.622 909.756 781.152 911.154C779.176 912.271 778.134 912.551 777.859 912.551C777.31 916.742 775.883 925.404 774.566 926.522C773.249 927.64 760.296 932.767 753.984 935.191C754.504 935.349 754.807 935.486 754.807 935.604C754.807 936.302 766.333 943.288 769.626 943.986Z" fill="#C45E4F"/>
<path d="M812.437 941.192C813.754 939.516 814.084 935.836 814.084 934.206C813.425 931.971 808.87 929.084 806.674 927.919L781.152 943.986C781.701 944.685 783.457 946.501 786.092 948.178C788.726 949.854 796.52 950.274 800.088 950.274C803.655 947.945 811.12 942.869 812.437 941.192Z" fill="#C45E4F"/>
<path fill-rule="evenodd" clip-rule="evenodd" d="M179.104 458.48C159.439 495.5 163.57 678.759 310.004 759.823C320.508 765.639 331.745 770.928 343.758 775.6L633.549 865.062C639.312 866.226 652.978 869.952 661.54 875.54C672.243 882.525 682.945 890.907 689.531 894.399C694.8 897.193 698.313 898.357 699.41 898.59C703.801 898.823 713.406 899.708 716.699 901.384C719.992 903.06 727.402 907.671 730.695 909.766C733.165 909.068 739.257 907.81 743.867 908.369C748.477 908.928 749.63 908.602 749.63 908.369C751.002 906.972 754.24 904.178 756.216 904.178C758.686 904.178 767.742 905.575 768.565 905.575C769.388 905.575 775.975 910.465 776.798 912.56C777.621 914.656 780.914 909.766 783.384 909.068C785.854 908.369 790.793 908.369 793.263 909.068C795.239 909.626 799.026 912.094 800.673 913.259C802.319 914.656 805.777 918.148 806.436 920.942C807.094 923.736 806.161 927.229 805.612 928.626C806.71 929.091 809.399 930.581 811.375 932.817C813.845 935.611 818.785 935.611 820.431 935.611C822.078 935.611 834.427 930.721 836.897 928.626C838.872 926.949 839.366 925.599 839.366 925.133H840.19C851.386 925.133 861.32 917.217 864.888 913.259H880.53C884.097 910.93 891.232 904.597 891.232 897.892C891.232 889.51 884.646 879.032 880.53 873.444C876.414 867.856 854.185 849.695 850.892 847.6C847.599 845.504 832.78 835.027 828.664 832.233C825.371 829.997 817.413 831.301 813.845 832.233C806.436 840.615 790.793 858.357 787.5 862.268C783.384 867.158 768.565 862.967 764.449 862.268C761.156 861.709 758.137 855.05 757.039 851.791L768.565 835.027C774.328 829.206 787.006 816.446 791.617 811.976C796.227 807.506 808.357 800.8 813.845 798.006C796.556 793.349 760.991 784.176 757.039 784.735C752.1 785.433 720.815 789.624 706.82 789.624C695.623 789.624 685.141 788.191 681.299 787.474C672.313 784.613 662.952 781.683 653.3 778.675C649.809 777.586 646.28 776.488 642.716 775.379C574.398 754.12 493.59 728.974 428.641 697.083C424.053 694.83 419.545 692.543 415.125 690.222C358.02 660.232 315.795 624.455 310.004 580.718H322.353C340.465 580.718 404.845 523.581 445.02 482.23C491.069 434.833 498.354 417.976 505.474 401.502C506.119 400.01 506.763 398.521 507.434 397.013C513.896 382.484 510.126 364.416 507.434 357.198C503.865 353.128 502.216 347.662 501.638 342.529C500.878 344.159 497.71 348.117 491.123 350.911C482.891 354.404 453.253 344.625 434.318 336.243C419.17 329.537 399.466 303.646 391.508 291.539C403.857 301.784 433.495 323.111 453.253 326.464C473.011 329.817 493.868 331.586 501.826 332.052C506.766 332.052 511.705 334.846 538.05 309.7C566.879 282.182 564.943 234.02 560.278 213.307C558.921 196.827 555.425 174.905 549.147 155.332C544.881 142.03 542.166 141.362 540.52 131.583C516.645 126.693 498.797 108.927 495.24 112.024C463.955 139.266 409.62 112.024 409.62 126.693C409.62 150.697 390.684 148.346 388.215 159.522C386.239 168.463 383.001 189.791 381.628 199.337C378.335 205.856 370.926 217.777 367.633 213.307C363.516 207.719 350.344 199.337 335.525 197.94C323.67 196.822 313.571 204.925 310.004 209.116C306.711 212.143 300.454 221.409 301.771 234.262C303.418 250.327 319.883 263.599 326.469 268.488C333.055 273.378 351.991 274.775 359.4 274.775C365.328 274.775 370.103 277.569 371.749 278.966C371.475 283.157 371.091 296.848 371.749 318.082C372.572 344.625 362.693 351.61 343.758 362.786C324.823 373.962 280.366 383.741 255.668 392.123L255.166 392.293C230.624 400.62 205.27 409.223 179.104 458.48ZM524.054 265.694C499.027 279.106 471.914 271.282 461.486 265.694C466.151 270.118 478.939 278.966 492.77 278.966C506.601 278.966 519.389 270.118 524.054 265.694ZM440.081 157.427C429.543 159.103 420.322 170.233 417.029 175.588C421.42 173.958 432.177 170 440.081 167.206C447.984 164.412 460.388 166.042 465.602 167.206C467.797 164.645 471.365 159.103 468.072 157.427C463.956 155.332 453.253 155.332 440.081 157.427ZM533.933 151.839C527.347 149.045 514.724 155.797 509.235 159.522C510.553 164.551 514.724 165.809 516.645 165.809C517.742 164.645 521.09 162.037 525.701 160.92C530.311 159.802 541.343 159.522 546.283 159.522C544.91 158.125 540.52 154.633 533.933 151.839ZM421.969 408.189C394.307 413.218 364.34 402.833 352.814 397.013C358.851 401.669 373.396 411.541 383.275 413.777C395.624 416.571 417.029 410.284 421.969 408.189ZM446.667 187.463C442.057 187.463 438.709 192.119 437.611 194.448C437.336 197.242 436.952 202.83 437.611 202.83C438.434 202.83 443.374 209.815 449.96 207.021C455.229 204.785 454.9 196.776 454.076 193.051C453.527 191.188 451.277 187.463 446.667 187.463ZM525.701 185.367C519.115 185.367 516.919 189.558 516.645 191.654V197.94C518.566 200.036 523.396 203.947 527.347 202.83C531.299 201.712 532.287 196.776 532.287 194.448C532.836 191.421 532.287 185.367 525.701 185.367Z" fill="#FA953D"/>
<path d="M310.004 209.116C313.571 204.925 323.67 196.822 335.525 197.94C350.344 199.337 363.516 207.719 367.633 213.307C370.926 217.777 378.335 205.856 381.628 199.337C383.001 189.791 386.239 168.463 388.215 159.522C390.684 148.346 409.62 150.697 409.62 126.693C409.62 112.024 463.955 139.266 495.24 112.024C498.797 108.927 516.645 126.693 540.52 131.583C542.166 141.362 544.881 142.03 549.147 155.332C558.025 145.832 564.109 132.281 566.041 126.693C567.688 98.7527 549.576 71.5113 538.05 61.7323C526.524 51.9533 501.638 43.5713 478.774 51.9533C460.483 58.6589 438.222 57.5414 429.378 56.1444C418.401 54.2817 391.508 51.674 371.749 56.1444C351.991 60.6148 339.367 85.0157 335.525 96.6574C329.214 99.2186 315.273 105.878 310.004 112.024C303.418 119.708 291.069 135.773 291.069 159.522C291.069 178.522 303.692 200.501 310.004 209.116Z" fill="#35244D"/>
<path d="M785.854 597.537C797.051 547.76 808.906 498.993 808.906 482.23C809.729 477.824 813.516 466.777 822.078 457.837C832.78 446.661 851.716 415.228 855.009 406.148C858.302 397.067 881.353 339.79 881.353 336.298C881.353 332.805 882.177 323.026 875.59 320.232C869.828 320.232 860.772 333.504 852.539 347.474C844.306 361.444 839.367 381.002 830.311 377.509C827.529 376.436 820.612 374.231 812.199 371.644C805.31 369.526 797.418 367.152 789.97 364.934C789.97 361.908 790.794 354.459 794.087 348.871C797.965 342.29 822.122 304.091 830.584 296.77C827.234 298.152 824.797 291.675 820.431 292.292C815.492 292.991 809.729 295.785 802.319 302.071C796.392 307.1 763.077 356.787 747.16 381.002V347.474C743.867 341.653 733.659 333.504 719.169 347.474C716.974 357.02 712.583 381.002 712.583 400.56C712.583 425.007 725.755 442.47 729.048 450.153C731.683 456.3 719.169 507.626 712.583 532.521C698.862 564.438 670.432 631.623 666.48 645.035C661.54 661.799 668.126 697.422 674.713 705.804C681.299 714.186 689.531 725.362 701.057 725.362C712.533 725.362 747.618 722.592 751.124 714.295C751.139 714.259 751.153 714.222 751.168 714.186C762.554 685.854 776.527 639.001 785.854 597.537Z" fill="#FA953D"/>
<path d="M856.655 299.976C857.753 296.949 858.96 290.755 855.009 290.197C850.069 289.498 836.074 291.594 831.957 295.785C831.479 296.271 831.023 296.588 830.584 296.77C822.122 304.091 797.965 342.29 794.087 348.871C790.794 354.459 789.97 361.908 789.97 364.934C797.418 367.152 805.31 369.526 812.199 371.644C815.217 363.354 823.395 343.702 831.957 331.408C840.519 319.115 851.99 305.331 856.655 299.976Z" fill="#FA953D"/>
<path d="M875.59 320.232C869.004 317.438 877.237 307.659 870.651 302.071C865.382 297.601 859.125 298.811 856.655 299.976C851.99 305.331 840.519 319.115 831.957 331.408C823.395 343.702 815.217 363.354 812.199 371.644C820.612 374.231 827.529 376.436 830.311 377.509C839.367 381.002 844.306 361.444 852.539 347.474C860.772 333.504 869.828 320.232 875.59 320.232Z" fill="#FA953D"/>
<path d="M453.253 326.464C433.495 323.111 403.857 301.784 391.508 291.539C399.466 303.646 419.17 329.537 434.318 336.243C453.253 344.625 482.891 354.404 491.123 350.911C497.71 348.117 500.878 344.159 501.638 342.529C501.194 338.575 501.385 334.819 501.826 332.052C493.868 331.586 473.011 329.817 453.253 326.464Z" fill="#C45E4F"/>
<path d="M712.583 532.521C696.941 565.351 662.034 634.782 647.545 649.869C645.31 652.196 645.181 666.865 646.071 686.191C650.404 698.299 663.516 723.771 681.299 728.8C699.081 733.829 726.853 728.855 740.574 726.759C744.664 723.983 748.832 719.918 751.124 714.295C747.618 722.592 712.533 725.362 701.057 725.362C689.531 725.362 681.299 714.186 674.713 705.804C668.126 697.422 661.54 661.799 666.48 645.035C670.432 631.623 698.862 564.438 712.583 532.521Z" fill="#C45E4F"/>
<path d="M352.814 397.013C364.34 402.833 394.307 413.218 421.969 408.189C417.029 410.284 395.624 416.571 383.275 413.777C373.396 411.541 358.851 401.669 352.814 397.013Z" fill="#C45E4F"/>
<path d="M461.486 265.694C471.914 271.282 499.027 279.106 524.054 265.694C519.389 270.118 506.601 278.966 492.77 278.966C478.939 278.966 466.151 270.118 461.486 265.694Z" fill="#C45E4F"/>
<path d="M516.645 191.654C516.919 189.558 519.115 185.367 525.701 185.367C532.287 185.367 532.836 191.421 532.287 194.448C532.287 196.776 531.299 201.712 527.347 202.83C523.396 203.947 518.566 200.036 516.645 197.94V191.654Z" fill="black"/>
<path d="M437.611 194.448C438.709 192.119 442.057 187.463 446.667 187.463C451.277 187.463 453.527 191.188 454.076 193.051C454.9 196.776 455.229 204.785 449.96 207.021C443.374 209.815 438.434 202.83 437.611 202.83C436.952 202.83 437.336 197.242 437.611 194.448Z" fill="black"/>
<path d="M417.029 175.588C420.322 170.233 429.543 159.103 440.081 157.427C453.253 155.332 463.956 155.332 468.072 157.427C471.365 159.103 467.797 164.645 465.602 167.206C460.388 166.042 447.984 164.412 440.081 167.206C432.177 170 421.42 173.958 417.029 175.588Z" fill="black"/>
<path d="M509.235 159.522C514.724 155.797 527.347 149.045 533.933 151.839C540.52 154.633 544.91 158.125 546.283 159.522C541.343 159.522 530.311 159.802 525.701 160.92C521.09 162.037 517.742 164.645 516.645 165.809C514.724 165.809 510.553 164.551 509.235 159.522Z" fill="black"/>
<path d="M633.549 865.062L343.758 775.6C331.745 770.928 320.508 765.639 310.004 759.823V888.811C447.287 888.811 524.257 888.811 661.54 888.811V875.54C652.978 869.952 639.312 866.226 633.549 865.062Z" fill="url(#paint6_linear_128_83)"/>
<path d="M575.097 401.902C572.249 440.552 554.73 535.176 507.434 604.467C520.383 588.867 550.399 546.072 566.864 499.692C583.33 453.312 579.213 415.174 575.097 401.902Z" fill="#DCCBAD"/>
<path d="M415.125 690.222C419.545 692.543 424.053 694.83 428.641 697.083C441.619 686.224 444.814 681.381 461.377 656.271C462.696 654.27 464.101 652.141 465.602 649.869C446.561 673.164 436.601 678.439 425.825 684.146C422.441 685.939 418.976 687.773 415.125 690.222Z" fill="#DCCBAD"/>
<path fill-rule="evenodd" clip-rule="evenodd" d="M516.645 362.786C535.58 367.675 612.144 389.329 633.549 415.173C650.673 435.849 693.373 502.02 712.583 532.521C696.941 565.351 662.034 634.782 647.545 649.869C645.31 652.196 645.181 666.865 646.071 686.191C647.407 715.182 651.037 754.654 653.3 778.675C649.809 777.586 646.28 776.488 642.716 775.379C574.398 754.12 493.59 728.974 428.641 697.083C441.619 686.224 444.814 681.381 461.377 656.271C462.696 654.27 464.101 652.141 465.602 649.869C446.561 673.164 436.601 678.439 425.825 684.146C422.441 685.939 418.976 687.773 415.125 690.222C384.174 673.968 357.595 656.013 338.818 636.013L348.697 645.714C431.72 600.311 519.875 474.08 538.05 415.173C517.056 469.889 404.807 606.676 338.818 636.013C322.951 619.112 312.656 600.75 310.004 580.718H322.353C340.465 580.718 404.845 523.581 445.02 482.23C491.069 434.833 498.354 417.976 505.474 401.502C506.119 400.01 506.763 398.521 507.434 397.013C513.896 382.484 510.126 364.416 507.434 357.198C509.676 359.755 512.676 361.761 516.645 362.786ZM575.097 401.902C572.249 440.552 554.73 535.176 507.434 604.467C520.383 588.867 550.399 546.072 566.864 499.692C583.33 453.312 579.213 415.174 575.097 401.902Z" fill="#FFF6E1"/>
<path d="M538.05 415.173C517.056 469.889 404.807 606.676 338.818 636.013L348.697 645.714C431.72 600.311 519.875 474.08 538.05 415.173Z" fill="#DCCBAD"/>
</g>
<rect y="357.539" width="960" height="722.461" fill="url(#paint7_linear_128_83)"/>
<rect x="960" y="391.289" width="960" height="688.711" fill="url(#paint8_linear_128_83)"/>
<defs>
<filter id="filter0_d_128_83" x="170.667" y="48.5156" width="1631.67" height="916.758" filterUnits="userSpaceOnUse" color-interpolation-filters="sRGB">
<feFlood flood-opacity="0" result="BackgroundImageFix"/>
<feColorMatrix in="SourceAlpha" type="matrix" values="0 0 0 0 0 0 0 0 0 0 0 0 0 0 0 0 0 0 127 0" result="hardAlpha"/>
<feOffset dx="21" dy="11"/>
<feGaussianBlur stdDeviation="2"/>
<feComposite in2="hardAlpha" operator="out"/>
<feColorMatrix type="matrix" values="0 0 0 0 0 0 0 0 0 0 0 0 0 0 0 0 0 0 0.25 0"/>
<feBlend mode="normal" in2="BackgroundImageFix" result="effect1_dropShadow_128_83"/>
<feBlend mode="normal" in="SourceGraphic" in2="effect1_dropShadow_128_83" result="shape"/>
</filter>
<linearGradient id="paint0_linear_128_83" x1="480" y1="0" x2="480" y2="1080" gradientUnits="userSpaceOnUse">
<stop stop-color="#644365"/>
<stop offset="0.502269" stop-color="#F8982A"/>
</linearGradient>
<linearGradient id="paint1_linear_128_83" x1="1440" y1="0" x2="1440" y2="1080" gradientUnits="userSpaceOnUse">
<stop stop-color="#255073"/>
<stop offset="1" stop-color="#119B9B"/>
</linearGradient>
<linearGradient id="paint2_linear_128_83" x1="1238.13" y1="68.677" x2="1238.13" y2="950.274" gradientUnits="userSpaceOnUse">
<stop offset="0.793269" stop-color="#F78841"/>
<stop offset="1" stop-color="#012D79"/>
</linearGradient>
<linearGradient id="paint3_linear_128_83" x1="1238.13" y1="68.677" x2="1238.13" y2="950.274" gradientUnits="userSpaceOnUse">
<stop offset="0.783654" stop-color="#F9E6BC"/>
<stop offset="1" stop-color="#012C77"/>
</linearGradient>
<linearGradient id="paint4_linear_128_83" x1="1238.13" y1="68.677" x2="1238.13" y2="950.274" gradientUnits="userSpaceOnUse">
<stop offset="0.783654" stop-color="#F9E6BC"/>
<stop offset="1" stop-color="#012C77"/>
</linearGradient>
<linearGradient id="paint5_linear_128_83" x1="1238.13" y1="68.677" x2="1238.13" y2="950.274" gradientUnits="userSpaceOnUse">
<stop offset="0.807692" stop-color="#CCCAB9"/>
<stop offset="1" stop-color="#012975"/>
</linearGradient>
<linearGradient id="paint6_linear_128_83" x1="530.95" y1="48.5156" x2="530.95" y2="935.611" gradientUnits="userSpaceOnUse">
<stop offset="0.846154" stop-color="#FFF6E1"/>
<stop offset="1" stop-color="#2EAE99"/>
</linearGradient>
<linearGradient id="paint7_linear_128_83" x1="480" y1="357.539" x2="480" y2="1080" gradientUnits="userSpaceOnUse">
<stop stop-color="#E38C32" stop-opacity="0.13"/>
<stop offset="0.466346" stop-color="#EF8C27" stop-opacity="0.36"/>
</linearGradient>
<linearGradient id="paint8_linear_128_83" x1="1440" y1="391.289" x2="1440" y2="1080" gradientUnits="userSpaceOnUse">
<stop stop-color="#1D8382" stop-opacity="0.12"/>
<stop offset="0.300889" stop-color="#129B99" stop-opacity="0.5"/>
</linearGradient>
</defs>
</svg>
