<svg width="277" height="277" viewBox="0 0 277 277" fill="none" xmlns="http://www.w3.org/2000/svg">
<rect x="2.5" y="2.5" width="272" height="272" rx="37.5" fill="#EC8305" stroke="#16610E" stroke-width="5"/>
<path fill-rule="evenodd" clip-rule="evenodd" d="M195.266 169.112L187.973 198.563L185.542 239.303C194.294 238.649 212.283 237.241 214.228 236.849C216.172 236.456 225.734 230.795 230.272 228.014L249.233 207.398L259.93 191.2L260.416 196.108C255.878 204.616 244.76 223.301 236.592 229.977C226.382 238.321 219.576 242.248 219.09 242.248C218.701 242.248 209.204 244.539 204.504 245.684L185.542 246.666V270.227V272.403C205.29 272.183 223.745 271.93 238.537 271.699C249.557 270.881 271.793 262.275 272.57 234.395C273.348 206.514 272.895 188.091 272.57 182.365C272.408 177.129 270.82 164.007 265.764 153.404C259.443 140.152 252.637 133.28 251.178 131.807C250.151 130.77 247.196 129.733 244.858 128.525C236.43 135.182 218.992 148.889 216.659 150.459C214.325 152.03 208.555 158.967 205.962 162.24L207.421 148.496C205.152 151.277 200.42 157.135 199.642 158.313C198.864 159.491 196.401 166.003 195.266 169.112ZM217.145 179.419L230.272 156.84V158.313V161.258L209.366 196.108L202.073 200.035L189.918 203.471V200.035L199.156 198.072L207.907 192.672L217.145 179.419Z" fill="white"/>
<path d="M30.9338 200.035L21.21 189.236V191.2L51.84 241.266C57.6743 244.702 69.7318 251.672 71.2876 252.065C72.8434 252.458 94.4823 258.119 105.107 260.9L103.376 237.831L91.7076 238.321L61.0776 234.395L51.84 231.449L30.9338 200.035Z" fill="#0F3C0A"/>
<path fill-rule="evenodd" clip-rule="evenodd" d="M11 256.974C13.431 225.887 19.2652 162.142 23.1548 155.859C27.0443 149.576 44.5471 131.971 52.8124 123.954L84.901 145.551C87.656 149.314 93.2634 157.429 93.6524 159.785C94.0413 162.142 100.297 185.964 103.376 197.581H76.6357L70.3152 192.182L63.5086 174.511L56.2157 165.185L67.8843 198.563L76.6357 201.999L109.589 203.445L116.99 204.453L115.531 226.05V234.395V237.831H103.376L91.7076 238.321L61.0776 234.395L51.84 231.449L30.9338 200.035L21.21 189.236V191.2L51.84 241.266C57.6743 244.702 69.7318 251.672 71.2876 252.065C72.8434 252.458 94.4823 258.119 105.107 260.9L105.807 270.227V272.988C69.1592 273.069 39.3595 272.767 33.3648 271.699C20.1404 269.343 12.9448 260.9 11 256.974Z" fill="#16610E"/>
<path d="M123.796 198.563L103.376 197.581H76.6357L70.3152 192.182L63.5086 174.511L56.2157 165.185L67.8843 198.563L76.6357 201.999L109.589 203.445L116.99 204.453H126.227C128.334 202.162 132.645 197.581 133.034 197.581C133.423 197.581 147.133 197.254 153.94 197.09L162.691 203.471L182.139 204.453L180.68 229.977H169.498L168.526 231.449C168.653 231.963 168.785 232.692 168.828 233.413C168.895 234.531 168.749 235.628 168.04 235.867C166.873 236.26 163.664 236.685 162.205 236.849L158.316 241.757H154.912H153.94L152.968 242.739L151.023 244.702H150.05H145.675L142.271 245.684H140.327L136.923 242.248L133.034 241.757L131.575 239.794L132.061 238.321L128.172 239.303L126.227 235.867V233.413H121.851V228.504L125.255 226.05H115.531V234.395H118.934V237.831C124.931 242.248 137.798 251.083 141.299 251.083C145.675 251.083 160.26 248.138 170.957 237.831L171.929 236.358H180.68L185.542 239.303L187.973 198.563H166.581C165.803 198.563 157.505 193.654 153.454 191.2L131.089 192.182L123.796 198.563Z" fill="#0F3C0A"/>
<path d="M117.476 96.466C116.017 91.5575 115.045 94.9934 114.072 90.0849C111.317 91.0666 105.029 93.03 101.918 93.03H81.0114V94.9934L83.4424 97.9385C83.6044 98.7566 83.8313 100.884 83.4424 102.847C83.0534 104.81 82.6321 111.846 82.47 115.118L67.8843 106.283C68.5325 107.622 70.218 110.773 71.7738 112.664C73.19 114.385 84.6506 123.929 91.7076 129.723C92.4033 130.294 93.0562 130.829 93.6524 131.316C95.9213 131.971 101.529 132.691 105.807 130.335C110.086 127.978 115.369 119.209 117.476 115.118C117.962 110.537 118.643 100.393 117.476 96.466Z" fill="white"/>
<path d="M195.266 131.807C197.211 132.2 200.29 130.007 201.587 128.862L223.465 107.265C222.169 107.592 219.381 108.345 218.603 108.737C217.825 109.13 212.769 113.482 210.338 115.609C210.014 112.01 209.268 104.516 208.88 103.338C208.491 102.16 206.773 98.2657 205.962 96.466C206.935 96.3023 209.171 95.7788 210.338 94.9934C211.505 94.208 212.121 92.0483 212.283 91.0666C207.745 91.5575 198.572 92.5392 198.183 92.5392C197.697 92.5392 187.973 92.5392 187.001 91.0666C186.223 89.8886 181.815 89.9213 179.708 90.0849L176.791 92.5392L174.846 97.9385C175.008 103.011 175.624 113.842 176.791 116.591C178.25 120.027 183.598 127.389 187.001 129.844C190.404 132.298 192.835 131.316 195.266 131.807Z" fill="white"/>
<path d="M205.962 134.752C207.518 136.716 207.583 144.733 207.421 148.496L205.962 162.24C208.555 158.967 214.325 152.03 216.659 150.459C218.992 148.889 236.43 135.182 244.858 128.525C243.875 128.017 243.002 127.479 242.427 126.899C240.871 125.328 237.889 114.137 236.592 108.737C236.85 108.283 237.126 107.79 237.418 107.265L229.786 100.393C230.596 98.593 232.217 94.208 232.217 91.0666C232.217 87.1398 231.73 82.2313 228.813 81.2496C225.896 80.2679 224.438 80.2679 223.465 80.2679C222.493 80.2679 217.631 83.7039 216.659 84.6856C215.881 85.4709 213.417 87.6307 212.283 88.6124L205.962 71.4326L183.598 69.2669C183.959 69.3441 184.286 69.412 184.57 69.4692C183.76 72.2507 182.042 78.01 181.653 78.7954C181.264 79.5807 180.194 86.649 179.708 90.0849C181.815 89.9213 186.223 89.8886 187.001 91.0666C187.973 92.5392 197.697 92.5392 198.183 92.5392C198.572 92.5392 207.745 91.5575 212.283 91.0666C212.121 92.0483 211.505 94.208 210.338 94.9934C209.171 95.7788 206.935 96.3023 205.962 96.466C206.773 98.2657 208.491 102.16 208.88 103.338C209.268 104.516 210.014 112.01 210.338 115.609C212.769 113.482 217.825 109.13 218.603 108.737C219.381 108.345 222.169 107.592 223.465 107.265L201.587 128.862C202.397 130.007 204.407 132.789 205.962 134.752Z" fill="#EEAD79"/>
<path d="M55.7295 111.682L52.8124 123.954L84.901 145.551L87.3319 134.752L91.7076 129.723C84.6506 123.929 73.19 114.385 71.7738 112.664C70.218 110.773 68.5325 107.622 67.8843 106.283L82.47 115.118C82.6321 111.846 83.0534 104.81 83.4424 102.847C83.8313 100.884 83.6044 98.7566 83.4424 97.9385L81.0114 94.9934V93.03H101.918C105.029 93.03 111.317 91.0666 114.072 90.0849C113.294 86.1581 110.507 75.0966 109.21 70.0567C106.56 70.9634 101.808 72.0145 97.0557 72.4143C92.3883 72.807 89.9249 72.578 89.2767 72.4143L80.0391 91.5575C78.5805 89.2668 75.0799 84.4892 72.7462 83.7039C69.8291 82.7222 67.8843 81.7405 63.9948 83.7039C60.1052 85.6673 60.1052 93.03 60.5914 94.9934C60.9804 96.5641 63.0224 100.884 63.9948 102.847C62.5362 104.707 58.6467 108.802 54.7571 110.3C55.1157 110.817 55.4446 111.284 55.7295 111.682Z" fill="#EEAD79"/>
<path d="M43.5748 77.8137C43.5748 88.1215 46.4919 94.9934 47.9505 98.9202C48.9595 101.637 52.465 106.996 54.7571 110.3C58.6467 108.802 62.5362 104.707 63.9948 102.847C63.0224 100.884 60.9804 96.5641 60.5914 94.9934C60.1052 93.03 60.1052 85.6673 63.9948 83.7039C67.8843 81.7405 69.8291 82.7222 72.7462 83.7039C75.0799 84.4892 78.5805 89.2668 80.0391 91.5575L89.2767 72.4143C89.9249 72.578 92.3883 72.807 97.0557 72.4143C101.808 72.0145 106.56 70.9634 109.21 70.0567C109.814 69.8503 110.308 69.6513 110.669 69.4692C112.225 68.6839 114.234 66.5242 115.045 65.5425C115.207 64.3971 115.434 61.5175 115.045 59.1614C114.559 56.2163 111.641 52.2895 109.21 50.3261C106.78 48.3627 99.4867 44.436 88.3043 42.4726C77.1219 40.5092 70.8014 41.9817 68.8567 42.4726C66.9119 42.9634 56.7019 46.3994 50.3814 53.7621C44.061 61.1248 43.5748 67.5059 43.5748 77.8137Z" fill="black"/>
<path d="M165.609 62.1065C166.905 63.0882 170.276 65.3461 173.388 66.5242C176.136 67.5648 180.858 68.6821 183.598 69.2669L205.962 71.4326L212.283 88.6124C213.417 87.6307 215.881 85.4709 216.659 84.6856C217.631 83.7039 222.493 80.2679 223.465 80.2679C224.438 80.2679 225.896 80.2679 228.813 81.2496C231.73 82.2313 232.217 87.1398 232.217 91.0666C232.217 94.208 230.596 98.593 229.786 100.393L237.418 107.265C241.547 99.8371 248.876 85.7631 250.692 78.7954C253.123 69.4692 250.206 59.6523 247.289 56.2163C244.371 52.7804 233.675 44.9268 224.438 42.9634C217.048 41.3927 208.069 41 204.504 41L198.67 41.9817C196.239 44.5996 191.182 50.3261 190.404 52.2895C189.626 54.2529 188.46 59.325 187.973 61.6157C182.787 60.4703 171.832 58.1797 169.498 58.1797C167.164 58.1797 165.933 60.7976 165.609 62.1065Z" fill="#0F3C0A"/>
<path d="M214.228 236.849C212.283 237.241 194.294 238.649 185.542 239.303V246.666L204.504 245.684C209.204 244.539 218.701 242.248 219.09 242.248C219.576 242.248 226.382 238.321 236.592 229.977C244.76 223.301 255.878 204.616 260.416 196.108L259.93 191.2L249.233 207.398L230.272 228.014C225.734 230.795 216.172 236.456 214.228 236.849Z" fill="#C4C4C4"/>
<path d="M230.272 156.84L217.145 179.419L207.907 192.672L199.156 198.072L189.918 200.035V203.471L202.073 200.035L209.366 196.108L230.272 161.258V158.313V156.84Z" fill="#BEBEBE"/>
<path d="M126.227 204.453H116.99L115.531 226.05H125.255L121.851 228.504V233.413H126.227V235.867L128.172 239.303L132.061 238.321L131.575 239.794L133.034 241.757L136.923 242.248L140.327 245.684H142.271L145.675 244.702L145.189 242.248L144.702 240.285L141.299 235.867L145.675 238.321L148.106 241.266L149.564 243.721L150.05 244.702H151.023L152.968 242.739L152.481 241.266L151.023 238.321L149.078 235.376L152.481 236.849C152.806 237.831 153.551 239.794 153.94 239.794C154.329 239.794 154.75 241.103 154.912 241.757H158.316L162.205 236.849C163.664 236.685 166.873 236.26 168.04 235.867C168.749 235.628 168.895 234.531 168.828 233.413L163.178 229.486L159.288 226.05L156.371 223.596L154.912 221.142L152.481 218.687L150.05 217.215L149.564 215.742H144.216L142.271 218.197L137.41 220.16L132.061 221.142L129.144 220.651L127.2 217.215V213.288L128.172 209.361L131.089 205.434L134.006 201.999L138.382 200.035H140.327H141.299L132.061 209.361L131.089 214.27L132.061 217.215H134.979L138.382 215.251L141.299 212.306L144.216 210.343H148.592L151.509 211.325L154.426 211.815L155.399 214.27L158.316 218.197L162.205 220.651L165.609 224.578L168.526 228.504L169.498 229.977H180.68L182.139 204.453L162.691 203.471L153.94 197.09C147.133 197.254 133.423 197.581 133.034 197.581C132.645 197.581 128.334 202.162 126.227 204.453Z" fill="#E5A26C"/>
<path d="M168.526 231.449L169.498 229.977L168.526 228.504L165.609 224.578L162.205 220.651L158.316 218.197L155.399 214.27L154.426 211.815L151.509 211.325L148.592 210.343H144.216L141.299 212.306L138.382 215.251L134.979 217.215H132.061L131.089 214.27L132.061 209.361L141.299 200.035H140.327H138.382L134.006 201.999L131.089 205.434L128.172 209.361L127.2 213.288V217.215L129.144 220.651L132.061 221.142L137.41 220.16L142.271 218.197L144.216 215.742H149.564L150.05 217.215L152.481 218.687L154.912 221.142L156.371 223.596L159.288 226.05L163.178 229.486L168.828 233.413C168.785 232.692 168.653 231.963 168.526 231.449Z" fill="#B26629"/>
<path d="M145.675 238.321L141.299 235.867L144.702 240.285L145.189 242.248L145.675 244.702H150.05L149.564 243.721L148.106 241.266L145.675 238.321Z" fill="#B26629"/>
<path d="M152.481 236.849L149.078 235.376L151.023 238.321L152.481 241.266L152.968 242.739L153.94 241.757H154.912C154.75 241.103 154.329 239.794 153.94 239.794C153.551 239.794 152.806 237.831 152.481 236.849Z" fill="#B26629"/>
</svg>
